<?xml version="1.0" encoding="utf-8"?>
<!-- Generator: Adobe Illustrator 24.1.3, SVG Export Plug-In . SVG Version: 6.00 Build 0)  -->
<svg version="1.1" id="Capa_1" xmlns="http://www.w3.org/2000/svg" xmlns:xlink="http://www.w3.org/1999/xlink" x="0px" y="0px"
	 viewBox="0 0 159.5 24.8" style="enable-background:new 0 0 159.5 24.8;" xml:space="preserve">
<style type="text/css">
	.st0{fill:#CD8B4F;}
	.st1{fill:#FFFFFF;}
	.st2{fill:url(#SVGID_1_);}
	.st3{fill:url(#SVGID_2_);}
	.st4{fill:url(#SVGID_3_);}
	.st5{fill:url(#SVGID_4_);}
	.st6{fill:url(#SVGID_5_);}
	.st7{fill:url(#SVGID_6_);}
	.st8{fill:url(#SVGID_7_);}
	.st9{fill:url(#SVGID_8_);}
	.st10{fill:url(#SVGID_9_);}
	.st11{fill:url(#SVGID_10_);}
	.st12{fill:url(#SVGID_11_);}
	.st13{fill:url(#SVGID_12_);}
	.st14{fill:#008C44;}
	.st15{fill:url(#SVGID_13_);}
</style>
<g>
	<path class="st0" d="M113.5,12.5c0.7-0.8,1.4-1.7,2.2-2.4c0.6-0.6,1.1-1.1,1.8-1.6c0.4-0.3,0.7-0.5,1.1-0.8
		c0.6-0.3,1.2-0.6,1.7-0.1c0.6,0.5,0.3,1.1,0.1,1.7c-0.4,0.9-0.8,1.7-1.1,2.6c0.3-0.3,0.5-0.6,0.8-0.9c0.9-1.1,2-2.1,3.2-2.9
		c0.4-0.3,0.9-0.5,1.3-0.7c1-0.3,1.6,0.4,1.3,1.4c-0.1,0.4-0.3,0.7-0.4,1.1c-0.8,1.6-1.5,3.3-2.3,4.9c-0.3,0.6-0.5,1.2-0.3,1.8
		c0.1,0.2,0,0.3-0.2,0.3c-0.6,0.3-1.3,0.4-1.9,0.3c-0.6-0.1-0.8-0.4-0.6-1c0.2-0.6,0.5-1.3,0.8-1.9c0.7-1.3,1.3-2.6,1.8-4
		c0.1-0.2,0.3-0.5,0.1-0.7c-0.2-0.2-0.5,0.1-0.7,0.3c-0.7,0.6-1.4,1.3-2,2.1c-1.1,1.3-2.1,2.7-3,4.2c-0.5,0.9-1.4,1.2-2.3,0.8
		c-0.4-0.2-0.5-0.3-0.3-0.7c1-1.9,1.9-3.9,2.8-6c0.1-0.2,0.4-0.5,0.1-0.7s-0.5,0.1-0.7,0.3c-0.9,0.8-1.7,1.7-2.4,2.7
		c-0.9,1.2-1.7,2.4-2.6,3.6c-0.6,0.9-1.6,1.2-2.5,0.9c-0.4-0.1-0.5-0.3-0.3-0.7c1.1-2.1,2.1-4.1,3.1-6.2c0.3-0.7,0.7-1.4,0.4-2.2
		c-0.1-0.2,0.1-0.3,0.2-0.3c0.5-0.2,1-0.3,1.5-0.3c0.8,0,1.1,0.4,0.9,1.2c-0.3,1.1-1,2.1-1.4,3.1C113.7,11.9,113.6,12.1,113.5,12.5
		L113.5,12.5z"/>
	<path class="st0" d="M92.4,2c2.3-1,5.5-0.7,7.5,1.5c1.7,1.8,2.1,4,1.4,6.3c-1.3,4.3-4.1,7.2-8.6,8.1c-1.2,0.2-2.5,0.2-3.7-0.1
		c-0.4-0.1-0.4-0.2-0.2-0.5c1.5-3.1,2.9-6.3,4.3-9.5c0.3-0.7,0.5-1.4,0.4-2.2c-0.1-0.2,0.1-0.4,0.3-0.5c0,0,0,0,0,0h0
		c0.6-0.2,1.2-0.3,1.8-0.3c0.7,0.1,1,0.4,0.8,1.1c-0.1,0.4-0.3,0.8-0.5,1.2c-1.3,3-2.7,6-4,9.1c-0.3,0.6-0.2,0.7,0.4,0.7
		c1,0,1.9-0.4,2.7-1.1c2.3-1.9,3.8-4.7,3.9-7.8c0.2-3.3-1.8-5.5-5.1-5.9C93.4,2.1,92.9,2,92.4,2z"/>
	<path class="st0" d="M50.1,7.4c0.4-0.7,0.7-1.3,0.8-2c0-0.8-0.4-1.3-1.2-1.2c-1,0.1-1.8,0.5-2.2,1.5S47.3,7.4,48,8.1
		c0.3,0.4,0.7,0.7,1,1.1c0.6,0.6,1.2,1.4,1.6,2.1c0.7,1.3,0.7,3-0.1,4.3c-1.5,2.7-5.2,4.2-8.2,3.3c-2.1-0.6-2.8-2.3-1.9-4.2
		c0.7-1.6,2-2.4,3.7-2.5c0.2,0,0.3,0,0.5,0c0.1,0,0.2,0.1,0.4,0.1c-0.8,0.7-1.5,1.5-2,2.4c-0.3,0.5-0.4,1-0.4,1.5
		c-0.1,1,0.7,1.9,1.7,1.9c0.2,0,0.3,0,0.5,0c2.1-0.3,3.6-2.3,3.3-4.5c-0.1-0.6-0.3-1.1-0.6-1.6c-0.6-0.8-1.2-1.6-1.9-2.3
		c-1.8-2-1.4-4.3,0.9-5.7c1.7-1,3.6-1.2,5.6-0.8c1.2,0.2,1.6,1.2,1,2.2C52.5,6.7,51.5,7.3,50.1,7.4z"/>
	<path class="st0" d="M138.6,24.3c2.7-2.1,4.1-5.1,5.5-8c0.5-0.9,0.8-1.8,1.1-2.8c-0.5,0.6-1,1.1-1.5,1.7c-0.6,0.6-1.2,1.2-2,1.6
		c-0.4,0.2-0.9,0.4-1.4,0.3c-0.6,0-1.1-0.5-1.2-1.1c-0.1-0.6,0-1.2,0.2-1.8c0.8-2.2,2.1-4.1,3.9-5.6c0.9-0.8,1.9-1.2,3.1-1.3
		c0.2,0,0.3,0,0.5,0c0.9,0.3,1.9,0.3,2.9,0.3c0.4,0,0.6,0.1,0.4,0.6c-1.7,3.8-3.4,7.5-5.3,11.2c-0.8,1.5-1.7,2.8-3.1,3.8
		C140.8,23.8,139.7,24.2,138.6,24.3z M141.9,14.6c0,0.1,0,0.4,0.2,0.5c0.2,0.1,0.5,0,0.6-0.1c0.3-0.2,0.6-0.5,0.9-0.8
		c1.2-1.2,2.2-2.6,3.1-4.1c0.3-0.5,0.5-0.9,0.7-1.5c0.1-0.2,0.1-0.5-0.1-0.7c-0.2-0.1-0.5-0.2-0.7-0.1c-0.5,0.2-1,0.5-1.3,0.9
		c-1.4,1.3-2.4,3-3.2,4.7C142,13.9,141.9,14.2,141.9,14.6L141.9,14.6z"/>
	<path class="st0" d="M133.2,12.4c0.4-0.5,0.9-1,1.3-1.5c0.9-1.1,2-2.1,3.1-2.9c0.5-0.3,1-0.7,1.6-0.7c0.7,0,1,0.4,1,1
		c-0.1,0.5-0.2,0.9-0.4,1.4c-0.7,1.6-1.5,3.1-2.2,4.7c-0.3,0.7-0.7,1.4-0.4,2.2c0.1,0.2-0.1,0.2-0.2,0.3c-0.6,0.2-1.2,0.3-1.8,0.3
		c-0.7-0.1-0.9-0.4-0.7-1c0.2-0.6,0.5-1.2,0.8-1.8c0.7-1.3,1.3-2.7,1.9-4.1c0.1-0.2,0.3-0.5,0.1-0.7c-0.2-0.2-0.5,0.1-0.7,0.2
		c-1.1,0.8-1.9,1.9-2.7,3c-0.8,1.1-1.6,2.3-2.4,3.4c-0.6,0.9-1.6,1.2-2.5,0.8c-0.3-0.1-0.4-0.3-0.2-0.6c1.1-2.1,2.1-4.3,3.2-6.4
		c0.3-0.6,0.6-1.2,0.3-1.9c-0.1-0.1,0-0.3,0.1-0.4l0.1,0c0.5-0.2,1.1-0.3,1.7-0.3c0.6,0.1,0.9,0.4,0.7,1c-0.1,0.7-0.5,1.3-0.8,1.9
		l-1,2.1L133.2,12.4z"/>
	<path class="st0" d="M64.7,12.8c1-1,1.9-2,2.8-3c0.6-0.7,1.4-1.2,2.1-1.7C69.7,8.1,69.8,8,70,8c0.5-0.2,1.1-0.4,1.6,0
		c0.5,0.4,0.3,1.1,0.1,1.6c-0.8,1.7-1.6,3.4-2.4,5.1c-0.3,0.8-0.8,1.5-0.5,2.4c0.1,0.2-0.1,0.2-0.2,0.3c-0.6,0.2-1.2,0.3-1.8,0.3
		c-0.6-0.1-0.8-0.4-0.7-1c0.2-0.6,0.5-1.2,0.8-1.8c0.7-1.3,1.3-2.7,1.9-4.1c0.1-0.2,0.3-0.5,0.1-0.7s-0.4,0.1-0.6,0.2
		c-0.5,0.4-0.9,0.8-1.2,1.2c-1.4,1.6-2.7,3.3-3.8,5.1c-0.7,0.9-1.6,1.3-2.5,0.9c-0.3-0.1-0.4-0.3-0.2-0.7c1.1-2.1,2.1-4.3,3.2-6.4
		c0.3-0.6,0.6-1.3,0.4-2c-0.1-0.2,0-0.3,0.2-0.4c0.6-0.3,1.2-0.3,1.8-0.3c0.5,0.1,0.7,0.4,0.6,1c-0.2,0.7-0.6,1.4-0.9,2L64.7,12.8z"
		/>
	<path class="st0" d="M57,15.2c-0.5,0.5-1,1-1.5,1.4c-0.7,0.5-1.5,1-2.4,0.9c-0.9,0-1.5-0.6-1.5-1.5c0-0.9,0.3-1.7,0.9-2.4
		c1-1.4,2.5-2.3,4.2-2.7c0.5-0.1,1-0.1,1.5,0.1c-1.7,0.6-2.8,1.7-3.6,3.1c-0.2,0.3-0.3,0.6-0.4,1c-0.1,0.6,0.2,0.9,0.8,0.8
		c0.3-0.1,0.5-0.2,0.7-0.4c1.5-1.5,2.8-3.3,3.4-5.4c0.3-1-0.2-1.5-1.2-1.4c-0.9,0.1-1.8,0.5-2.7,1c0.2-0.5,0.6-0.9,1-1.2
		c1.1-0.8,2.5-1.1,3.8-0.7c1.3,0.3,1.8,1.2,1.4,2.5c-0.5,1.3-1,2.5-1.6,3.7c-0.3,0.6-0.6,1.2-0.8,1.9c-0.2,0.3-0.2,0.7-0.1,1.1
		c0.1,0.3,0,0.4-0.3,0.5c-0.5,0.2-1,0.3-1.5,0.2c-0.6-0.1-0.8-0.4-0.7-0.9C56.6,16.1,56.9,15.7,57,15.2z"/>
	<path class="st0" d="M84.8,8.5c-0.9-0.4-2-0.1-2.7,0.5c-1.7,1.5-2.6,3.3-3,5.5c0,0.1,0,0.3,0,0.4c0,0.6,0.1,1.2,0.7,1.5
		c0.6,0.3,1.2,0.1,1.7-0.4c1.3-1.3,2-2.8,1.6-4.6c0-0.3-0.1-0.5-0.3-0.7c-0.4-0.4-0.2-0.7,0.2-0.9c0.5-0.4,1.1-0.6,1.7-0.3
		c0.6,0.3,0.8,0.8,0.8,1.4c0.1,2.9-2.9,6.4-5.8,6.8c-1.9,0.2-3.1-0.8-3.1-2.7c-0.1-3.2,2.4-6.7,5.3-7.4C82.8,7.4,84.3,7.5,84.8,8.5z
		"/>
	<path class="st0" d="M109.3,8.1c-1.2-0.4-2-0.1-2.8,0.6c-1.6,1.4-2.6,3.4-2.9,5.5c-0.1,0.7,0,1.4,0.6,1.7c0.5,0.3,1.3,0.1,1.9-0.5
		c1.1-1.1,1.6-2.5,1.5-4c0-0.4-0.1-0.8-0.4-1.2c-0.4-0.4-0.2-0.6,0.1-0.9c0.5-0.4,1.1-0.6,1.8-0.4s0.8,0.9,0.8,1.5
		c0,3.3-3.3,6.8-6.4,6.7c-1.3,0-2.3-0.8-2.4-2.1c-0.4-3.1,2.1-7.4,5.6-8C107.8,6.9,108.8,7.2,109.3,8.1z"/>
	<path class="st0" d="M157.5,8.1c-1.5-0.5-2.5,0.2-3.4,1.1c-1.3,1.4-2.1,3.1-2.4,4.9c-0.1,0.9,0.1,1.6,0.7,1.8
		c0.6,0.3,1.3,0.1,1.9-0.6c1-1.1,1.6-2.5,1.4-4c0-0.4-0.2-0.8-0.4-1.2c-0.3-0.3-0.2-0.5,0-0.7c0.5-0.5,1.3-0.7,1.9-0.5
		c0.6,0.3,0.8,0.9,0.8,1.5c0,0.7-0.1,1.3-0.4,1.9c-1,2.3-2.4,4.1-4.9,4.7c-2.2,0.5-3.7-0.7-3.5-2.9c0.1-2.7,1.6-5.1,3.9-6.5
		c1-0.6,2-0.9,3.2-0.6C156.8,7.3,157.2,7.6,157.5,8.1z"/>
	<path class="st0" d="M79.3,4.1c-0.8,1.1-1.4,2.2-2,3.4C77.1,7.9,77.2,8,77.6,8c0.4,0,0.7,0,1.2,0c-0.2,0.5-0.8,0.8-1.3,0.7
		c-0.7,0-1,0.3-1.2,0.9c-0.8,1.8-1.6,3.6-2.4,5.3c-0.3,0.7-0.7,1.4-0.4,2.2c0.1,0.2-0.1,0.2-0.2,0.2c-0.6,0.3-1.3,0.4-2,0.3
		c-0.5-0.1-0.7-0.4-0.6-0.9c0.1-0.4,0.2-0.7,0.4-1.1c1-2.1,2-4.2,3-6.3c0.2-0.4,0.2-0.6-0.3-0.5c-0.2,0-0.5,0-0.7,0
		c-0.1,0-0.3,0-0.3-0.1c0-0.2,0.1-0.2,0.2-0.3C73.4,8.1,73.9,8,74.3,8c0.3,0,0.6-0.1,0.7-0.4c0.5-1.1,1.3-2,2.2-2.8
		C77.8,4.4,78.5,4.1,79.3,4.1z"/>
	<path class="st0" d="M129.3,7.3c1.2,0,1.6,0.5,1.1,1.5c-0.9,1.9-1.8,3.8-2.7,5.7c-0.3,0.6-0.7,1.3-0.3,2c0.1,0.1,0,0.2-0.1,0.3
		c-0.7,0.2-1.3,0.5-2,0.3c-0.4,0-0.6-0.4-0.6-0.7c0,0,0,0,0,0c0-0.1,0-0.1,0-0.2c0.1-0.4,0.2-0.8,0.4-1.1c0.8-1.7,1.6-3.4,2.5-5.1
		c0.3-0.7,0.6-1.3,0.4-2.1c-0.1-0.3,0.1-0.3,0.3-0.4C128.5,7.5,128.9,7.4,129.3,7.3z"/>
	<path class="st1" d="M113.3,12.1c0.7-0.8,1.4-1.7,2.2-2.4c0.6-0.6,1.1-1.1,1.8-1.6c0.4-0.3,0.7-0.6,1.1-0.8
		c0.6-0.3,1.2-0.6,1.7-0.1c0.6,0.5,0.3,1.1,0.1,1.7c-0.4,0.9-0.8,1.7-1.1,2.6c0.3-0.3,0.5-0.6,0.8-0.9c1-1.1,2-2.1,3.2-2.9
		c0.4-0.3,0.9-0.5,1.3-0.7c1-0.3,1.6,0.4,1.3,1.4c-0.1,0.4-0.3,0.8-0.4,1.1c-0.8,1.6-1.5,3.2-2.3,4.9c-0.3,0.6-0.5,1.2-0.3,1.8
		c0.1,0.2,0,0.3-0.2,0.3c-0.6,0.3-1.3,0.4-1.9,0.3c-0.6-0.1-0.8-0.4-0.6-1c0.2-0.6,0.5-1.3,0.8-1.9c0.7-1.3,1.3-2.6,1.8-4
		c0.1-0.2,0.3-0.5,0.1-0.7c-0.2-0.2-0.5,0.1-0.7,0.3c-0.7,0.6-1.4,1.3-2,2.1c-1.1,1.3-2.1,2.8-3,4.2c-0.5,0.9-1.4,1.2-2.3,0.8
		c-0.4-0.2-0.5-0.3-0.3-0.7c1-1.9,1.9-3.9,2.8-6c0.1-0.2,0.4-0.5,0.1-0.7c-0.3-0.2-0.5,0.1-0.7,0.3c-0.9,0.8-1.7,1.7-2.4,2.7
		c-0.9,1.2-1.7,2.4-2.6,3.6c-0.6,0.9-1.6,1.2-2.5,0.9c-0.4-0.1-0.5-0.3-0.3-0.7c1.1-2.1,2.1-4.1,3.1-6.2c0.3-0.7,0.7-1.4,0.4-2.2
		c-0.1-0.2,0.1-0.3,0.2-0.3c0.5-0.2,1-0.3,1.5-0.3c0.8,0,1.1,0.4,0.9,1.2c-0.3,1.1-1,2.1-1.4,3.1C113.5,11.5,113.4,11.8,113.3,12.1
		L113.3,12.1z"/>
	<path class="st1" d="M92.2,1.6c2.3-1,5.5-0.7,7.5,1.5c1.7,1.8,2.1,4,1.4,6.3c-1.3,4.3-4.1,7.2-8.6,8.1c-1.2,0.2-2.5,0.2-3.7-0.1
		c-0.4-0.1-0.4-0.2-0.2-0.5c1.5-3.1,2.9-6.3,4.3-9.5c0.3-0.7,0.5-1.4,0.4-2.2c-0.1-0.2,0.1-0.4,0.3-0.5c0,0,0,0,0,0h0
		c0.6-0.2,1.2-0.3,1.8-0.3c0.7,0.1,1,0.4,0.8,1.1C96,6,95.8,6.4,95.6,6.8c-1.3,3-2.7,6.1-4,9.1c-0.3,0.6-0.2,0.7,0.4,0.7
		c1,0,1.9-0.4,2.7-1.1c2.3-1.9,3.8-4.8,3.9-7.8c0.2-3.3-1.8-5.5-5.1-5.9L92.2,1.6z"/>
	<path class="st1" d="M49.9,7c0.4-0.7,0.7-1.3,0.8-2c0-0.8-0.4-1.3-1.2-1.2c-1,0.1-1.8,0.5-2.2,1.5c-0.4,1-0.1,1.8,0.5,2.5
		c0.3,0.4,0.7,0.7,1,1.1c0.6,0.6,1.2,1.3,1.6,2.1c0.7,1.3,0.7,3-0.1,4.3c-1.5,2.8-5.2,4.2-8.2,3.3c-2.1-0.6-2.8-2.3-1.9-4.2
		c0.7-1.6,2-2.4,3.7-2.5c0.2,0,0.3,0,0.5,0c0.1,0,0.3,0.1,0.4,0.1c-0.8,0.7-1.5,1.5-2,2.4c-0.3,0.5-0.4,1-0.4,1.5
		c0,1,0.7,1.9,1.8,1.9c0.1,0,0.3,0,0.4,0c2.1-0.3,3.6-2.3,3.3-4.5c-0.1-0.6-0.3-1.1-0.6-1.6c-0.6-0.8-1.2-1.6-1.9-2.3
		c-1.8-2-1.4-4.3,0.9-5.7C48,2.8,50,2.7,51.9,3c1.2,0.2,1.6,1.2,1,2.2C52.2,6.3,51.1,7,49.9,7z"/>
	<path class="st1" d="M138.4,23.9c2.7-2.1,4-5.1,5.5-8c0.5-0.9,0.8-1.8,1.1-2.8c-0.5,0.6-1,1.1-1.5,1.7c-0.6,0.6-1.2,1.2-2,1.6
		c-0.4,0.2-0.9,0.4-1.4,0.3c-0.6,0-1.2-0.5-1.2-1.1c-0.1-0.6,0-1.2,0.2-1.8c0.8-2.2,2.1-4.1,3.9-5.6c0.9-0.8,2-1.2,3.1-1.3
		c0.2,0,0.3,0,0.5,0c0.9,0.3,1.9,0.3,2.9,0.3c0.4,0,0.6,0.1,0.4,0.6c-1.7,3.8-3.4,7.5-5.3,11.2c-0.8,1.5-1.7,2.8-3.1,3.8
		C140.6,23.5,139.5,23.9,138.4,23.9z M141.7,14.2c0,0.2,0,0.4,0.2,0.5c0.2,0.1,0.5,0,0.6-0.1c0.3-0.2,0.6-0.5,0.9-0.8
		c1.2-1.2,2.2-2.6,3.1-4.1c0.3-0.5,0.5-0.9,0.7-1.5c0.1-0.2,0.1-0.5-0.1-0.7c-0.2-0.1-0.5-0.2-0.7-0.1c-0.5,0.2-1,0.5-1.3,0.9
		c-1.4,1.3-2.4,3-3.2,4.7C141.8,13.5,141.7,13.9,141.7,14.2z"/>
	<path class="st1" d="M132.9,12.1c0.4-0.5,0.9-1,1.3-1.5c0.9-1.1,2-2.1,3.1-3c0.5-0.3,1-0.7,1.6-0.7c0.7,0,1,0.4,1,1
		c-0.1,0.5-0.2,0.9-0.4,1.4c-0.7,1.6-1.5,3.1-2.2,4.7c-0.3,0.7-0.7,1.4-0.4,2.2c0.1,0.2-0.1,0.2-0.2,0.3c-0.6,0.2-1.2,0.3-1.8,0.3
		c-0.7-0.1-0.9-0.4-0.7-1c0.2-0.6,0.5-1.2,0.8-1.7c0.7-1.3,1.3-2.7,1.9-4.1c0.1-0.2,0.3-0.5,0.1-0.7c-0.2-0.2-0.5,0.1-0.7,0.2
		c-1.1,0.8-1.9,1.9-2.7,3c-0.8,1.1-1.6,2.3-2.4,3.4c-0.6,0.9-1.6,1.2-2.5,0.8c-0.3-0.1-0.4-0.3-0.2-0.6c1.1-2.1,2.1-4.3,3.2-6.4
		c0.3-0.6,0.6-1.2,0.3-2c-0.1-0.1,0-0.3,0.1-0.4l0.1,0c0.5-0.2,1.1-0.3,1.7-0.3c0.6,0.1,0.9,0.4,0.7,1c-0.1,0.7-0.5,1.3-0.8,1.9
		c-0.3,0.7-0.7,1.4-1,2.1L132.9,12.1z"/>
	<path class="st1" d="M64.4,12.5c1-1,1.9-2,2.8-3c0.6-0.7,1.4-1.2,2.1-1.7c0.1-0.1,0.2-0.1,0.3-0.2c0.5-0.2,1.1-0.4,1.6,0
		c0.5,0.4,0.3,1.1,0.1,1.6c-0.8,1.7-1.6,3.4-2.4,5.1c-0.3,0.8-0.8,1.5-0.5,2.4c0.1,0.2-0.1,0.2-0.2,0.3c-0.6,0.2-1.2,0.3-1.8,0.3
		c-0.6-0.1-0.8-0.4-0.7-1c0.2-0.6,0.5-1.2,0.8-1.8c0.7-1.3,1.3-2.7,1.9-4.1c0.1-0.2,0.3-0.5,0.1-0.7c-0.2-0.2-0.4,0.1-0.6,0.2
		c-0.5,0.4-0.9,0.8-1.2,1.2c-1.4,1.6-2.7,3.3-3.8,5.1c-0.7,0.9-1.6,1.3-2.5,0.9c-0.3-0.1-0.4-0.3-0.2-0.7c1.1-2.1,2.1-4.3,3.2-6.4
		c0.3-0.6,0.6-1.3,0.4-2c-0.1-0.2,0-0.3,0.2-0.4c0.6-0.3,1.2-0.3,1.8-0.3c0.5,0.1,0.7,0.4,0.6,1c-0.2,0.7-0.6,1.4-0.9,2
		C65.1,11.1,64.7,11.8,64.4,12.5z"/>
	<path class="st1" d="M56.8,14.9c-0.5,0.5-1,1-1.5,1.4c-0.7,0.5-1.5,1-2.4,0.9c-0.9,0-1.5-0.6-1.5-1.5c0-0.9,0.3-1.7,0.9-2.4
		c1-1.4,2.5-2.3,4.2-2.7c0.5-0.1,1-0.1,1.5,0.1c-1.7,0.6-2.8,1.7-3.6,3.1c-0.2,0.3-0.3,0.6-0.4,1c-0.1,0.6,0.2,0.9,0.8,0.8
		c0.3-0.1,0.5-0.2,0.7-0.4c1.5-1.5,2.8-3.3,3.4-5.4c0.3-1-0.2-1.5-1.2-1.4c-0.9,0.1-1.8,0.5-2.7,1c0.2-0.5,0.6-0.9,1-1.2
		c1.1-0.8,2.5-1.1,3.8-0.8c1.3,0.3,1.8,1.2,1.4,2.5c-0.5,1.3-1,2.5-1.6,3.7c-0.3,0.6-0.6,1.2-0.8,1.9c-0.2,0.3-0.2,0.7-0.1,1.1
		c0.1,0.3,0,0.4-0.3,0.5c-0.5,0.2-1,0.3-1.5,0.2c-0.6-0.1-0.8-0.4-0.7-0.9C56.4,15.8,56.6,15.4,56.8,14.9z"/>
	<path class="st1" d="M84.5,8.1c-0.9-0.4-2-0.2-2.7,0.5c-1.7,1.4-2.6,3.3-3,5.5c0,0.1,0,0.3,0,0.4c0,0.6,0.1,1.2,0.7,1.5
		c0.6,0.3,1.2,0.1,1.7-0.4c1.3-1.3,2-2.8,1.6-4.6c0-0.3-0.1-0.5-0.3-0.7c-0.4-0.4-0.2-0.7,0.2-0.9c0.5-0.4,1.1-0.6,1.7-0.3
		c0.6,0.3,0.8,0.8,0.8,1.4c0.1,2.9-2.9,6.4-5.8,6.8c-1.9,0.2-3.1-0.8-3.1-2.7c-0.1-3.2,2.4-6.7,5.3-7.4C82.6,7,84,7.2,84.5,8.1z"/>
	<path class="st1" d="M109.1,7.7c-1.2-0.4-2-0.1-2.8,0.6c-1.6,1.4-2.6,3.4-2.9,5.5c-0.1,0.7,0,1.3,0.6,1.7c0.5,0.3,1.3,0.1,1.9-0.5
		c1.1-1.1,1.6-2.5,1.5-4c0-0.4-0.1-0.8-0.4-1.2c-0.4-0.4-0.2-0.6,0.1-0.9c0.5-0.4,1.1-0.6,1.8-0.4c0.6,0.3,0.8,0.9,0.8,1.5
		c0,3.3-3.3,6.8-6.4,6.7c-1.3,0-2.3-0.8-2.4-2.1c-0.4-3.1,2.1-7.4,5.6-8C107.5,6.6,108.5,6.9,109.1,7.7z"/>
	<path class="st1" d="M157.2,7.7c-1.5-0.5-2.5,0.2-3.4,1.1c-1.3,1.4-2.1,3.1-2.4,4.9c-0.1,0.9,0.1,1.6,0.7,1.8
		c0.6,0.3,1.3,0.1,1.9-0.6c1-1.1,1.6-2.5,1.4-4c0-0.4-0.2-0.8-0.4-1.2c-0.3-0.3-0.2-0.5,0-0.7c0.5-0.5,1.3-0.7,1.9-0.5
		c0.6,0.3,0.8,0.9,0.8,1.5c0,0.7-0.1,1.3-0.4,1.9c-1,2.3-2.4,4.1-4.9,4.7c-2.2,0.5-3.7-0.7-3.5-2.9c0.1-2.7,1.6-5.1,3.9-6.5
		c1-0.6,2-0.9,3.2-0.6C156.5,7,156.9,7.3,157.2,7.7z"/>
	<path class="st1" d="M79,3.7c-0.8,1.1-1.4,2.2-2,3.4c-0.2,0.4-0.1,0.6,0.4,0.5c0.4,0,0.7,0,1.2,0c-0.3,0.5-0.8,0.8-1.3,0.7
		c-0.7,0-1,0.3-1.2,0.9c-0.8,1.8-1.6,3.6-2.4,5.3c-0.3,0.7-0.7,1.4-0.4,2.2c0.1,0.2-0.1,0.2-0.2,0.2c-0.6,0.3-1.3,0.4-2,0.3
		c-0.5-0.1-0.7-0.4-0.6-0.9c0.1-0.4,0.2-0.7,0.4-1.1c1-2.1,2-4.2,3-6.3c0.2-0.4,0.2-0.6-0.3-0.5c-0.2,0-0.5,0-0.7,0
		c-0.1,0-0.3,0-0.3-0.1s0.1-0.2,0.2-0.3c0.4-0.2,0.8-0.4,1.2-0.3c0.3,0,0.6-0.1,0.7-0.4c0.5-1.1,1.3-2,2.2-2.8
		C77.6,4,78.3,3.8,79,3.7z"/>
	<path class="st1" d="M129.1,7c1.2,0,1.6,0.5,1.1,1.5c-0.9,1.9-1.8,3.8-2.7,5.7c-0.3,0.6-0.7,1.3-0.3,2c0.1,0.1,0,0.2-0.1,0.3
		c-0.7,0.2-1.3,0.5-2,0.3c-0.4,0-0.6-0.4-0.6-0.7c0,0,0,0,0,0c0-0.1,0-0.1,0-0.2c0.1-0.4,0.2-0.8,0.4-1.1c0.8-1.7,1.6-3.4,2.5-5.1
		c0.3-0.7,0.6-1.3,0.4-2.1c-0.1-0.3,0.1-0.3,0.3-0.4C128.3,7.1,128.7,7,129.1,7z"/>
	
		<linearGradient id="SVGID_1_" gradientUnits="userSpaceOnUse" x1="117.103" y1="683.822" x2="117.103" y2="673.9258" gradientTransform="matrix(1 0 0 1 0 -667.12)">
		<stop  offset="0" style="stop-color:#9D0917"/>
		<stop  offset="1" style="stop-color:#D7182A"/>
	</linearGradient>
	<path class="st2" d="M113.1,12c0.7-0.8,1.4-1.7,2.2-2.4c0.6-0.6,1.1-1.1,1.8-1.6c0.4-0.3,0.7-0.6,1.1-0.8c0.6-0.3,1.2-0.6,1.7-0.1
		c0.6,0.5,0.3,1.1,0.1,1.7c-0.4,0.9-0.8,1.7-1.1,2.6c0.3-0.3,0.5-0.6,0.8-0.9c1-1.1,2-2.1,3.2-2.9c0.4-0.3,0.9-0.5,1.3-0.7
		c1-0.3,1.6,0.4,1.3,1.4c-0.1,0.4-0.3,0.8-0.4,1.1c-0.8,1.6-1.5,3.2-2.3,4.9c-0.3,0.6-0.5,1.2-0.3,1.8c0.1,0.2,0,0.3-0.2,0.3
		c-0.6,0.3-1.3,0.3-1.9,0.3c-0.6-0.1-0.8-0.4-0.6-1c0.2-0.6,0.5-1.3,0.8-1.9c0.7-1.3,1.3-2.6,1.8-4c0.1-0.2,0.3-0.5,0.1-0.7
		c-0.2-0.2-0.5,0.1-0.7,0.3c-0.7,0.6-1.4,1.3-2,2.1c-1.1,1.3-2.1,2.7-3,4.2c-0.5,0.9-1.4,1.2-2.3,0.8c-0.4-0.1-0.5-0.3-0.3-0.7
		c1-1.9,1.9-3.9,2.8-6c0.1-0.2,0.4-0.5,0.1-0.7c-0.3-0.2-0.5,0.1-0.7,0.3c-0.9,0.8-1.7,1.7-2.4,2.7c-0.9,1.2-1.7,2.4-2.6,3.6
		c-0.6,0.9-1.6,1.2-2.5,0.9c-0.4-0.1-0.5-0.3-0.3-0.7c1.1-2.1,2.1-4.1,3.1-6.2c0.3-0.7,0.7-1.4,0.4-2.2c-0.1-0.2,0.1-0.3,0.2-0.3
		c0.5-0.2,1-0.3,1.5-0.3c0.8,0,1.1,0.4,0.9,1.2c-0.3,1.1-1,2.1-1.4,3.1C113.3,11.4,113.1,11.6,113.1,12L113.1,12z"/>
	
		<linearGradient id="SVGID_2_" gradientUnits="userSpaceOnUse" x1="94.6659" y1="684.6659" x2="94.6659" y2="668.0713" gradientTransform="matrix(1 0 0 1 0 -667.12)">
		<stop  offset="0" style="stop-color:#9D0917"/>
		<stop  offset="1" style="stop-color:#D7182A"/>
	</linearGradient>
	<path class="st3" d="M92,1.5c2.3-1,5.5-0.7,7.5,1.5c1.7,1.8,2.1,4,1.4,6.3c-1.3,4.3-4.1,7.2-8.6,8.1c-1.2,0.2-2.5,0.2-3.7-0.1
		c-0.4-0.1-0.4-0.2-0.2-0.5c1.5-3.1,2.9-6.3,4.3-9.5C92.9,6.6,93,5.8,93,5.1c-0.1-0.2,0.1-0.4,0.3-0.5c0,0,0,0,0,0h0
		c0.6-0.2,1.2-0.3,1.8-0.3c0.7,0.1,1,0.4,0.8,1.1c-0.1,0.4-0.3,0.8-0.5,1.2c-1.3,3-2.7,6-4,9.1c-0.3,0.6-0.2,0.7,0.4,0.7
		c1,0,1.9-0.4,2.7-1.1c2.3-1.9,3.8-4.7,3.9-7.8c0.2-3.3-1.8-5.5-5.1-5.9C92.9,1.6,92.5,1.6,92,1.5z"/>
	
		<linearGradient id="SVGID_3_" gradientUnits="userSpaceOnUse" x1="46.229" y1="685.8192" x2="46.229" y2="669.8561" gradientTransform="matrix(1 0 0 1 0 -667.12)">
		<stop  offset="0" style="stop-color:#9D0917"/>
		<stop  offset="1" style="stop-color:#D7182A"/>
	</linearGradient>
	<path class="st4" d="M49.7,6.9c0.4-0.7,0.7-1.3,0.8-2c0-0.8-0.4-1.3-1.2-1.2c-1,0.1-1.8,0.5-2.2,1.5c-0.4,1-0.1,1.8,0.5,2.5
		c0.3,0.4,0.7,0.7,1,1.1c0.6,0.6,1.2,1.4,1.6,2.1c0.7,1.3,0.7,3-0.1,4.3c-1.5,2.7-5.2,4.2-8.2,3.3c-2.1-0.6-2.8-2.3-1.9-4.2
		c0.7-1.6,2-2.4,3.7-2.5c0.2,0,0.3,0,0.5,0c0.1,0,0.3,0.1,0.4,0.1c-0.8,0.7-1.5,1.5-2,2.4c-0.3,0.5-0.4,1-0.4,1.5
		c-0.1,1,0.7,1.9,1.7,1.9c0.2,0,0.3,0,0.5,0c2.1-0.3,3.6-2.3,3.3-4.5c-0.1-0.6-0.3-1.1-0.6-1.6c-0.6-0.8-1.2-1.6-1.9-2.3
		c-1.8-2-1.4-4.3,0.9-5.7c1.7-1,3.6-1.2,5.6-0.8c1.2,0.2,1.6,1.2,1,2.2C52,6.2,50.9,6.9,49.7,6.9z"/>
	
		<linearGradient id="SVGID_4_" gradientUnits="userSpaceOnUse" x1="143.9117" y1="690.9431" x2="143.9117" y2="673.908" gradientTransform="matrix(1 0 0 1 0 -667.12)">
		<stop  offset="0" style="stop-color:#9D0917"/>
		<stop  offset="1" style="stop-color:#D7182A"/>
	</linearGradient>
	<path class="st5" d="M138.1,23.8c2.7-2.1,4-5.1,5.5-8c0.5-0.9,0.8-1.8,1.1-2.8c-0.5,0.6-1,1.1-1.5,1.7c-0.6,0.6-1.2,1.2-2,1.6
		c-0.4,0.2-0.9,0.4-1.4,0.3c-0.6,0-1.2-0.5-1.2-1.1c-0.1-0.6,0-1.2,0.2-1.8c0.8-2.2,2.1-4.1,3.9-5.6c0.9-0.8,1.9-1.2,3.1-1.3
		c0.2,0,0.3,0,0.5,0c0.9,0.3,1.9,0.3,2.8,0.3c0.4,0,0.6,0.1,0.4,0.6c-1.7,3.7-3.4,7.5-5.3,11.2c-0.8,1.5-1.7,2.8-3.1,3.8
		C140.4,23.3,139.3,23.7,138.1,23.8z M141.4,14.1c0,0.1,0,0.4,0.2,0.5c0.2,0.1,0.5,0,0.6-0.1c0.3-0.2,0.6-0.5,0.9-0.8
		c1.2-1.2,2.2-2.6,3.1-4.1c0.3-0.5,0.5-0.9,0.7-1.5c0.1-0.2,0.1-0.5-0.1-0.7c-0.2-0.1-0.5-0.2-0.7-0.1c-0.5,0.2-1,0.5-1.3,0.9
		c-1.4,1.3-2.5,2.9-3.2,4.7C141.5,13.4,141.5,13.8,141.4,14.1L141.4,14.1z"/>
	
		<linearGradient id="SVGID_5_" gradientUnits="userSpaceOnUse" x1="133.9634" y1="683.8127" x2="133.9634" y2="673.955" gradientTransform="matrix(1 0 0 1 0 -667.12)">
		<stop  offset="0" style="stop-color:#9D0917"/>
		<stop  offset="1" style="stop-color:#D7182A"/>
	</linearGradient>
	<path class="st6" d="M132.7,12c0.4-0.5,0.9-1,1.3-1.5c0.9-1.1,2-2.1,3.1-3c0.5-0.3,1-0.7,1.6-0.7c0.7,0,1,0.4,1,1
		c-0.1,0.5-0.2,0.9-0.4,1.4c-0.7,1.6-1.5,3.1-2.2,4.7c-0.3,0.7-0.7,1.4-0.4,2.2c0.1,0.2-0.1,0.2-0.2,0.3c-0.6,0.2-1.2,0.3-1.8,0.3
		c-0.7-0.1-0.9-0.4-0.7-1c0.2-0.6,0.4-1.2,0.8-1.7c0.7-1.3,1.3-2.7,1.9-4.1c0.1-0.2,0.3-0.5,0.1-0.7s-0.5,0.1-0.7,0.2
		c-1.1,0.8-1.9,1.9-2.7,3c-0.8,1.1-1.6,2.3-2.4,3.4c-0.6,0.9-1.6,1.2-2.5,0.8c-0.3-0.1-0.4-0.3-0.2-0.6c1.1-2.1,2.1-4.3,3.2-6.4
		c0.3-0.6,0.6-1.2,0.3-1.9c-0.1-0.1,0-0.3,0.1-0.4l0.1,0c0.5-0.2,1.1-0.3,1.7-0.3c0.6,0.1,0.9,0.4,0.7,1c-0.1,0.7-0.5,1.3-0.8,1.9
		c-0.3,0.7-0.7,1.4-1,2.1L132.7,12z"/>
	
		<linearGradient id="SVGID_6_" gradientUnits="userSpaceOnUse" x1="65.599" y1="684.2534" x2="65.599" y2="674.3561" gradientTransform="matrix(1 0 0 1 0 -667.12)">
		<stop  offset="0" style="stop-color:#9D0917"/>
		<stop  offset="1" style="stop-color:#D7182A"/>
	</linearGradient>
	<path class="st7" d="M64.2,12.4c1-1,1.9-2,2.8-3c0.6-0.7,1.4-1.2,2.1-1.7c0.1-0.1,0.2-0.1,0.3-0.2c0.5-0.2,1.1-0.4,1.6,0
		c0.5,0.4,0.3,1.1,0.1,1.6c-0.8,1.7-1.6,3.4-2.4,5.1c-0.3,0.8-0.8,1.5-0.5,2.4c0.1,0.2-0.1,0.2-0.2,0.3c-0.6,0.2-1.2,0.3-1.8,0.3
		c-0.6-0.1-0.8-0.4-0.7-1c0.2-0.6,0.5-1.2,0.8-1.8c0.7-1.3,1.3-2.7,1.9-4.1c0.1-0.2,0.3-0.5,0.1-0.7c-0.2-0.2-0.4,0.1-0.6,0.2
		c-0.5,0.4-0.9,0.8-1.2,1.2c-1.4,1.6-2.7,3.3-3.8,5.1C62,17,61,17.4,60.1,17c-0.3-0.1-0.4-0.3-0.2-0.7c1.1-2.1,2.1-4.3,3.2-6.4
		c0.3-0.6,0.6-1.3,0.4-2c-0.1-0.2,0-0.3,0.2-0.4c0.6-0.3,1.2-0.3,1.8-0.3c0.5,0.1,0.7,0.4,0.6,1c-0.2,0.7-0.6,1.4-0.9,2L64.2,12.4z"
		/>
	
		<linearGradient id="SVGID_7_" gradientUnits="userSpaceOnUse" x1="56.1588" y1="684.2393" x2="56.1588" y2="674.1969" gradientTransform="matrix(1 0 0 1 0 -667.12)">
		<stop  offset="0" style="stop-color:#9D0917"/>
		<stop  offset="1" style="stop-color:#D7182A"/>
	</linearGradient>
	<path class="st8" d="M56.5,14.7c-0.5,0.5-1,1-1.5,1.4c-0.7,0.5-1.5,1-2.4,0.9c-0.9,0-1.5-0.6-1.5-1.5c0-0.9,0.3-1.7,0.9-2.4
		c1-1.4,2.5-2.3,4.2-2.7c0.5-0.1,1-0.1,1.5,0.1c-1.7,0.6-2.8,1.7-3.6,3.1c-0.2,0.3-0.3,0.6-0.4,1c-0.1,0.6,0.2,0.9,0.8,0.8
		c0.3-0.1,0.5-0.2,0.7-0.4c1.5-1.5,2.8-3.3,3.4-5.4c0.3-1-0.2-1.5-1.2-1.4c-0.9,0.1-1.8,0.5-2.7,1c0.2-0.5,0.6-0.9,1-1.2
		c1.1-0.8,2.5-1.1,3.8-0.8C61,7.5,61.4,8.4,61,9.7c-0.5,1.3-1,2.5-1.6,3.7c-0.3,0.6-0.6,1.2-0.8,1.9c-0.2,0.3-0.2,0.7-0.1,1.1
		c0.1,0.3,0,0.4-0.3,0.5c-0.5,0.2-1,0.3-1.5,0.2c-0.6-0.1-0.8-0.4-0.7-0.9C56.1,15.7,56.4,15.2,56.5,14.7z"/>
	
		<linearGradient id="SVGID_8_" gradientUnits="userSpaceOnUse" x1="80.4827" y1="684.3445" x2="80.4827" y2="674.1556" gradientTransform="matrix(1 0 0 1 0 -667.12)">
		<stop  offset="0" style="stop-color:#9D0917"/>
		<stop  offset="1" style="stop-color:#D7182A"/>
	</linearGradient>
	<path class="st9" d="M84.3,8c-0.9-0.4-2-0.2-2.7,0.5c-1.7,1.5-2.6,3.3-3,5.5c0,0.1,0,0.3,0,0.4c0,0.6,0.1,1.2,0.7,1.5
		c0.6,0.3,1.2,0.1,1.7-0.4c1.3-1.3,2-2.8,1.6-4.6c0-0.3-0.1-0.5-0.3-0.7c-0.4-0.4-0.2-0.7,0.2-0.9c0.5-0.4,1.1-0.6,1.7-0.3
		s0.8,0.8,0.8,1.4c0.1,2.9-2.9,6.4-5.8,6.8c-1.9,0.2-3.1-0.8-3.1-2.7c-0.1-3.2,2.4-6.7,5.3-7.4C82.4,6.9,83.8,7.1,84.3,8z"/>
	
		<linearGradient id="SVGID_9_" gradientUnits="userSpaceOnUse" x1="105.0646" y1="683.9089" x2="105.0646" y2="673.7203" gradientTransform="matrix(1 0 0 1 0 -667.12)">
		<stop  offset="0" style="stop-color:#9D0917"/>
		<stop  offset="1" style="stop-color:#D7182A"/>
	</linearGradient>
	<path class="st10" d="M108.9,7.6c-1.2-0.4-2-0.1-2.8,0.6c-1.6,1.4-2.6,3.4-2.9,5.5c-0.1,0.6-0.1,1.3,0.6,1.7
		c0.5,0.3,1.3,0.1,1.9-0.5c1.1-1.1,1.6-2.5,1.5-4c0-0.4-0.1-0.8-0.4-1.2c-0.4-0.4-0.2-0.6,0.1-0.9c0.5-0.4,1.1-0.6,1.8-0.4
		c0.6,0.3,0.8,0.9,0.8,1.5c0,3.3-3.3,6.8-6.4,6.7c-1.3,0-2.3-0.8-2.4-2.1c-0.4-3.1,2.1-7.4,5.6-8C107.3,6.4,108.3,6.8,108.9,7.6z"/>
	
		<linearGradient id="SVGID_10_" gradientUnits="userSpaceOnUse" x1="153.1157" y1="683.9283" x2="153.1157" y2="673.717" gradientTransform="matrix(1 0 0 1 0 -667.12)">
		<stop  offset="0" style="stop-color:#9D0917"/>
		<stop  offset="1" style="stop-color:#D7182A"/>
	</linearGradient>
	<path class="st11" d="M157,7.6c-1.5-0.5-2.5,0.2-3.4,1.1c-1.3,1.4-2.1,3.1-2.4,4.9c-0.1,0.9,0.1,1.6,0.7,1.8
		c0.6,0.3,1.3,0.1,1.9-0.6c1-1.1,1.5-2.5,1.4-4c0-0.4-0.2-0.8-0.4-1.2c-0.3-0.3-0.2-0.5,0-0.7c0.5-0.5,1.3-0.7,1.9-0.5
		c0.6,0.3,0.8,0.9,0.8,1.5c0,0.7-0.1,1.3-0.4,1.9c-1,2.3-2.4,4.1-4.9,4.7c-2.2,0.5-3.7-0.7-3.5-2.9c0.1-2.7,1.6-5.1,3.9-6.5
		c1-0.6,2-0.9,3.2-0.6C156.3,6.9,156.7,7.2,157,7.6z"/>
	
		<linearGradient id="SVGID_11_" gradientUnits="userSpaceOnUse" x1="74.5374" y1="684.267" x2="74.5374" y2="670.7042" gradientTransform="matrix(1 0 0 1 0 -667.12)">
		<stop  offset="0" style="stop-color:#9D0917"/>
		<stop  offset="1" style="stop-color:#D7182A"/>
	</linearGradient>
	<path class="st12" d="M78.8,3.6c-0.8,1.1-1.4,2.2-2,3.4c-0.2,0.4-0.1,0.6,0.4,0.5c0.4,0,0.7,0,1.2,0c-0.3,0.5-0.8,0.8-1.3,0.7
		c-0.7,0-1,0.3-1.2,0.9c-0.8,1.8-1.6,3.6-2.4,5.3c-0.3,0.7-0.7,1.4-0.4,2.2c0.1,0.2-0.1,0.2-0.2,0.2c-0.6,0.3-1.3,0.4-2,0.3
		c-0.5-0.1-0.7-0.4-0.6-0.9c0.1-0.4,0.2-0.7,0.4-1.1c1-2.1,2-4.2,3-6.3c0.2-0.4,0.2-0.6-0.3-0.5c-0.2,0-0.5,0-0.7,0
		c-0.1,0-0.3,0-0.3-0.1c0-0.2,0.1-0.2,0.2-0.3c0.4-0.2,0.8-0.4,1.2-0.3c0.3,0,0.6-0.1,0.7-0.4c0.5-1.1,1.3-2,2.2-2.8
		C77.3,3.9,78,3.6,78.8,3.6z"/>
	
		<linearGradient id="SVGID_12_" gradientUnits="userSpaceOnUse" x1="127.1343" y1="683.8566" x2="127.1343" y2="673.9763" gradientTransform="matrix(1 0 0 1 0 -667.12)">
		<stop  offset="0" style="stop-color:#9D0917"/>
		<stop  offset="1" style="stop-color:#D7182A"/>
	</linearGradient>
	<path class="st13" d="M128.8,6.9c1.2,0,1.6,0.5,1.1,1.5c-0.9,1.9-1.8,3.8-2.7,5.7c-0.3,0.6-0.7,1.3-0.3,2c0.1,0.1,0,0.2-0.1,0.3
		c-0.7,0.2-1.3,0.5-2,0.3c-0.4,0-0.6-0.4-0.6-0.7c0-0.1,0-0.1,0-0.2c0.1-0.4,0.2-0.8,0.4-1.1c0.8-1.7,1.6-3.4,2.5-5.1
		c0.3-0.7,0.6-1.3,0.4-2.1c-0.1-0.3,0.1-0.3,0.3-0.4C128.1,7,128.4,6.9,128.8,6.9z"/>
	<path class="st14" d="M13.2,7c-0.7-2.7-2.2-3.3-4.4-1.9C5.9,7,3.8,12.1,4.6,15.4C5,17.2,6.3,17.7,8,16.8c1.4-0.7,2.6-2.2,3.7-4.4
		c0.4,0.3,0.1,0.7,0.1,1.1c-0.8,3-4.1,5.5-7.1,5.4c-1.7-0.1-2.8-1-3-2.7C1,12.3,4.2,4.7,9.7,3.4c1.1-0.2,2.2-0.3,3.3-0.2
		c1.5,0.2,1.9,0.8,1.2,2.2C14,6,13.6,6.5,13.2,7z"/>
	<path class="st14" d="M15.8,10.2c1-1.6,3.8-2.1,5.1-1.1c0.6,0.4,0.8,1.2,0.5,1.9c-0.5,1.4-1.1,2.8-1.8,4.2
		c-0.4,0.7-0.7,1.5-0.8,2.3c0,0.4,0.2,0.8-0.4,0.9c-0.6,0.1-1.1,0.4-1.6,0c-0.3-0.2-0.4-0.5-0.2-0.8c0.1-0.4,0.2-0.7,0.5-1.4
		c-1,0.8-1.7,1.6-2.6,2c-0.9,0.4-1.7,0.6-2.4,0s-0.5-1.5-0.2-2.3c0.7-2,3.3-3.8,5.8-3.8c-1.2,0.8-2.3,1.6-3,2.8
		c-0.4,0.6-1.1,1.4-0.4,2s1.4-0.2,1.9-0.7c1.2-1.3,2.1-2.8,2.7-4.4c0.6-1.5-0.1-2.2-1.7-1.9C16.8,9.8,16.3,10,15.8,10.2z"/>
	<path class="st14" d="M23.1,9.4c2.2,0,2.4-1.8,3.2-3c1.1-1.6,2.3-3.1,4.3-3.5c0.4-0.1,0.8-0.1,1.2,0C32.1,3,32.6,3,32.4,3.6
		s-0.5,0.1-0.8,0c-0.8-0.3-1.4,0.1-2,0.7c-1,1.2-1.8,2.6-2.2,4.1c-0.4,1.1,0.8,0.4,1.2,0.8c0,0.1-0.1,0.2-0.1,0.2
		c-1.6,0-2.1,1.2-2.7,2.4c-0.8,1.8-1.6,3.6-2.4,5.3c-0.6,1.4-1.5,2.7-2.7,3.6c-0.7,0.5-1.5,0.8-2.3,0.7c2.7-3.2,3.9-6.9,5.7-10.4
		C24.6,10,24.5,9.5,23.1,9.4z"/>
	<path class="st14" d="M33,15.9c-0.7,1.6-2.3,2.7-4.1,2.6c-1.3,0-2.3-1-2.3-2.3c0-0.1,0-0.2,0-0.3c0-3.1,3.3-7,6.3-7.4
		c0.4-0.1,0.9-0.1,1.3,0c1.4,0.2,2,1.2,1.4,2.4c-0.9,1.7-2.3,2.6-4.6,2.8c1.3-0.9,2.3-1.8,2.8-3c0.2-0.5,0.7-1.1,0.1-1.5
		c-0.6-0.5-1.1,0-1.5,0.4c-1.8,1.6-3,3.7-3.5,6c-0.2,0.6,0.1,1.3,0.6,1.6c0.5,0.3,1.1,0.3,1.6,0C31.7,16.8,32.3,16.4,33,15.9z"/>
	<path class="st14" d="M37.5,6c-1.4,0.2-2.7,0.6-4,1.2c0.7-1.1,1.5-2.1,2.9-2.2C37.1,4.8,37.4,5.3,37.5,6z"/>
	<path class="st0" d="M131.7,4.4c0,0.9-1.1,1.7-2,1.5c-0.3-0.1-0.6-0.4-0.6-0.7c-0.1-0.6,0.2-1,0.7-1.4c0.5-0.3,1-0.5,1.5-0.2
		C131.5,3.8,131.7,4.1,131.7,4.4z"/>
	<path class="st1" d="M131.4,4.1c0,0.9-1.1,1.7-2,1.5c-0.3-0.1-0.6-0.4-0.6-0.7c-0.1-0.6,0.2-1,0.7-1.4s1-0.5,1.5-0.2
		C131.3,3.5,131.5,3.8,131.4,4.1z"/>
	
		<linearGradient id="SVGID_13_" gradientUnits="userSpaceOnUse" x1="130.0139" y1="672.618" x2="130.0139" y2="670.146" gradientTransform="matrix(1 0 0 1 0 -667.12)">
		<stop  offset="0" style="stop-color:#9D0917"/>
		<stop  offset="1" style="stop-color:#D7182A"/>
	</linearGradient>
	<path class="st15" d="M131.3,4c0,0.9-1.1,1.7-2,1.5c-0.3-0.1-0.6-0.4-0.6-0.7c-0.1-0.6,0.2-1,0.7-1.4c0.5-0.3,1-0.5,1.5-0.2
		C131.2,3.3,131.3,3.7,131.3,4z"/>
</g>
</svg>
