<svg id="Capa_1" data-name="Capa 1" xmlns="http://www.w3.org/2000/svg" viewBox="0 0 84.81 47.88"><defs><style>.cls-1{fill:#3d3331;}.cls-2{fill:#f8b15f;}.cls-3{fill:none;}</style></defs><path class="cls-1" d="M20.53,45.62a2.31,2.31,0,0,0,.87-2.16c0-2.83,0-5.67,0-8.5,0-1-.33-1.87-1.08-1.86S19.19,34,19.2,35q0,4.53,0,9c0,.55.36,1.51-.31,1.6s-1.69.47-2.4-.55c-1.87-2.71-3.81-5.34-5.73-8a4.3,4.3,0,0,0-.87-1c.29,3.12-.73,6.36.52,9.42H7.84A2.6,2.6,0,0,0,8.77,43c0-2.61,0-5.21,0-7.82A2.64,2.64,0,0,0,8.05,33c1.15,0,2.3,0,3.46,0,.51,0,.72.42,1,.77,1.68,2.22,3.36,4.44,5.19,6.6-.2-2.45.76-5-.58-7.35,3.64,0,7.33-.11,11,0,3,.12,5.08,2.52,5.43,5.76a5.61,5.61,0,0,1-2.45,5.72,7.09,7.09,0,0,1-3.35,1.11,3.38,3.38,0,0,1-.45,0Zm9.69-6.21a4.34,4.34,0,0,0-1.76-3.82,6.27,6.27,0,0,0-3.26-1c-.66,0-.84.24-.82,1,0,2,0,4,0,6.08,0,3,0,3,2.54,2.18A4.27,4.27,0,0,0,30.22,39.41Z"/><path class="cls-2" d="M42.17,27.12a6.37,6.37,0,0,1-5.34-1.57c-2-1.62-2.53-4.2-2.71-6.8a39.45,39.45,0,0,1,.36-10.46,7.44,7.44,0,0,1,8.38-6.38c.67.06.68.72.73,1.3a22.24,22.24,0,0,1-.7,6.62c-.61,2.81-1.39,5.56-2,8.36C40,22.06,40.21,23.15,42.17,27.12Z"/><path class="cls-1" d="M43.88,1.77c2.86.15,5.25.81,6.75,3.57a9,9,0,0,1,.07,8.43,1.84,1.84,0,0,0,.11,2.06c2,3.27.48,8.63-2.86,10.43a9.64,9.64,0,0,1-3.73,1c-.58.06-.83-.3-1-.8a9.66,9.66,0,0,1-.63-4.86,24.1,24.1,0,0,1,1.39-6.08,27.26,27.26,0,0,0,1.49-5.78A10.33,10.33,0,0,0,43.88,1.77Z"/><path class="cls-1" d="M62,40.23a9.35,9.35,0,0,1,3.37.2A3.68,3.68,0,0,0,68.52,40c-.27,2.16,1.12,3.37,1.72,5,.15.39.45.13.66-.07.43-.39.37-.95.37-1.48,0-2.75,0-5.49,0-8.24,0-.82,0-1.65-.69-2.21,1.15,0,2.31,0,3.47,0,.51,0,.72.44,1,.8,1.68,2.19,3.35,4.39,5.16,6.55-.19-2.43.74-5-.53-7.29h3a2.69,2.69,0,0,0-.92,2.46c0,2.83,0,5.67,0,8.5,0,.54.29,1.45-.25,1.54-.78.13-1.69.52-2.4-.51-1.55-2.21-3.15-4.36-4.73-6.54a27.73,27.73,0,0,0-1.9-2.4c.09,3.09-.45,6.21.25,9.32a50.61,50.61,0,0,1-6.36.19c.17-1-.44-3.34-1-3.7-.93-.63-3.62-.69-4.17-.09a4.59,4.59,0,0,0-.73,3.84H57.74c1.74-4.07,3.45-8,5.11-12,.36-.89.93-.67,1.5-.75s.87.23,1.09.85c.62,1.69,1.3,3.35,1.94,5,.11.28.44.59,0,.92-.62.52-2.67-.06-3-.87s-.63-1.43-1.06-2.41c-.56,1.28-1,2.38-1.5,3.48l-.09.29Z"/><path class="cls-1" d="M56,38.71c.11.11.15.18.21.21,1.66,1,2.25,2,2.09,3.41a3.36,3.36,0,0,1-2.79,3.07c-2.65.6-5.33.14-8,.28.4-1.68.33-11.62-.09-12.68,2.42,0,4.83-.15,7.22,0s3.32,2,2.6,4.14A3.65,3.65,0,0,1,56,38.71Zm-3-.16c.13-.33.42-.36.64-.52a2.18,2.18,0,0,0,.89-2.27,1.76,1.76,0,0,0-1.62-1.58c-.37-.07-.76,0-1.13,0-.69-.1-.82.3-.81,1,0,2.83,0,5.67,0,8.5,0,.79.18,1.09.84.86.33-.12.66-.18,1-.3a2.89,2.89,0,0,0,2.2-2.7C55,40.05,54.44,39.25,52.93,38.55Z"/><path class="cls-1" d="M34,33h3.79a67.79,67.79,0,0,0-.05,8.43A2.58,2.58,0,0,0,40.38,44a2.7,2.7,0,0,0,2.3-2.8c.07-2.16.07-4.31.11-6.47a2.48,2.48,0,0,0-.52-1.7h4a5.1,5.1,0,0,0-.32,2.13c0,1.26,0,2.51,0,3.77,0,3.72-.66,5.09-3,6.13-2.63,1.18-6,.42-7.57-1.69a4.27,4.27,0,0,1-.86-2.7c0-1.89,0-3.78,0-5.66A2.71,2.71,0,0,0,34,33Z"/><path class="cls-1" d="M7.25,45.61H2.39a2.73,2.73,0,0,0,.89-2.55c0-2.65,0-5.3,0-8a2,2,0,0,0-1-2.06H7a2.77,2.77,0,0,0-.77,2.33c0,2.6,0,5.21,0,7.81A2.32,2.32,0,0,0,7.25,45.61Z"/><rect class="cls-3" x="0.29" y="-1.34" width="84.22" height="50.56"/></svg>