<?xml version="1.0" encoding="utf-8"?>
<!-- Generator: Adobe Illustrator 24.1.3, SVG Export Plug-In . SVG Version: 6.00 Build 0)  -->
<svg version="1.1" id="Capa_1" xmlns="http://www.w3.org/2000/svg" xmlns:xlink="http://www.w3.org/1999/xlink" x="0px" y="0px"
	 viewBox="0 0 100 100" style="enable-background:new 0 0 100 100;" xml:space="preserve">
<style type="text/css">
	.st0{fill:#CD8B4F;}
	.st1{fill:#FFFFFF;}
	.st2{fill:#008C44;}
	.st3{fill:url(#SVGID_1_);}
	.st4{fill:url(#SVGID_2_);}
	.st5{fill:url(#SVGID_3_);}
	.st6{fill:url(#SVGID_4_);}
	.st7{fill:url(#SVGID_5_);}
	.st8{fill:url(#SVGID_6_);}
	.st9{fill:url(#SVGID_7_);}
	.st10{fill:url(#SVGID_8_);}
	.st11{fill:url(#SVGID_9_);}
	.st12{fill:url(#SVGID_10_);}
	.st13{fill:url(#SVGID_11_);}
	.st14{fill:url(#SVGID_12_);}
	.st15{fill:url(#SVGID_13_);}
</style>
<path class="st0" d="M38.1,58.8c0.9-1,1.8-2.1,2.7-3c0.7-0.7,1.4-1.4,2.2-2c0.4-0.4,0.9-0.7,1.4-1c0.7-0.4,1.5-0.7,2.2-0.1
	s0.4,1.4,0.1,2.1c-0.4,1.1-1,2.1-1.3,3.3l1-1.1c1.2-1.3,2.5-2.6,4-3.6c0.5-0.4,1-0.7,1.6-0.9c1.3-0.3,2,0.5,1.7,1.7
	c-0.1,0.5-0.3,0.9-0.5,1.4c-0.9,2-1.9,4-2.8,6.1c-0.4,0.7-0.5,1.5-0.3,2.3c0.1,0.2,0,0.3-0.2,0.4c-0.8,0.3-1.6,0.4-2.4,0.3
	c-0.7-0.1-1-0.5-0.8-1.2c0.2-0.8,0.6-1.6,1-2.3c0.8-1.6,1.6-3.3,2.3-4.9c0.1-0.3,0.4-0.7,0.1-0.9s-0.6,0.1-0.9,0.3
	c-0.9,0.8-1.7,1.6-2.5,2.6c-1.4,1.7-2.7,3.4-3.8,5.3c-0.5,1-1.8,1.5-2.9,1c-0.5-0.2-0.6-0.4-0.3-0.9c1.3-2.4,2.4-4.9,3.5-7.4
	c0.1-0.3,0.5-0.7,0.1-0.9s-0.7,0.1-0.9,0.3c-1.1,1-2.1,2.1-3,3.3c-1.1,1.5-2.2,3-3.2,4.5c-0.6,1.1-1.9,1.6-3.1,1.1
	c-0.5-0.2-0.6-0.4-0.3-0.9c1.3-2.6,2.6-5.2,3.9-7.7c0.5-0.8,0.7-1.8,0.5-2.7c-0.1-0.3,0.1-0.3,0.3-0.4c0.6-0.3,1.2-0.4,1.9-0.4
	c1,0,1.3,0.6,1.1,1.5c-0.5,1.3-1.1,2.6-1.8,3.8C38.4,58,38.2,58.4,38.1,58.8L38.1,58.8z"/>
<path class="st0" d="M11.8,45.7c3.2-1.4,6.9-0.7,9.3,1.9c2,2.1,2.7,5.1,1.8,7.8c-1.6,5.4-5.1,9-10.7,10.1c-1.5,0.3-3.1,0.2-4.7-0.2
	C7,65.2,7,65.1,7.2,64.7c1.9-3.9,3.6-7.8,5.3-11.8c0.4-0.8,0.6-1.8,0.5-2.7c-0.1-0.3,0.1-0.5,0.3-0.6c0,0,0,0,0,0
	c0.7-0.3,1.5-0.4,2.3-0.3c0.9,0.1,1.2,0.5,1,1.4c-0.2,0.5-0.4,1-0.6,1.5c-1.7,3.8-3.3,7.5-5,11.3c-0.3,0.8-0.3,0.8,0.5,0.8
	c1.2,0,2.4-0.4,3.3-1.3c2.9-2.4,4.7-5.9,4.9-9.7c0.3-4.1-2.3-6.9-6.4-7.4C13,45.8,12.5,45.8,11.8,45.7z"/>
<path class="st0" d="M39.7,35.3c0.5-0.7,0.9-1.6,1-2.5c0-1-0.5-1.6-1.5-1.5c-1.2,0-2.3,0.7-2.8,1.8c-0.5,1-0.2,2.3,0.6,3.1
	c0.4,0.5,0.8,0.9,1.3,1.4c0.8,0.8,1.5,1.7,2,2.7c0.9,1.7,0.9,3.7-0.1,5.3c-2.1,3.5-6.3,5.2-10.2,4.1c-2.6-0.8-3.5-2.8-2.4-5.3
	c0.8-1.9,2.6-3.1,4.6-3.1c0.2,0,0.4,0,0.6,0c0.1,0,0.3,0.1,0.5,0.1c-1,0.8-1.9,1.8-2.4,3c-0.3,0.6-0.5,1.2-0.5,1.9
	c-0.1,1.3,0.9,2.3,2.2,2.4c0.2,0,0.4,0,0.6,0c2.7-0.4,4.5-2.9,4.1-5.6c-0.1-0.7-0.4-1.4-0.7-2c-0.7-1-1.5-2-2.3-2.9
	c-2.2-2.5-1.8-5.4,1.2-7.1c2.1-1.2,4.6-1.5,6.9-1c1.5,0.3,2,1.4,1.2,2.8C42.7,34.4,41.3,35.2,39.7,35.3z"/>
<path class="st0" d="M69.3,73.5c3.3-2.7,5-6.3,6.8-10c0.6-1.1,1-2.2,1.4-3.4c-0.6,0.7-1.2,1.4-1.9,2.1c-0.7,0.8-1.5,1.4-2.4,1.9
	c-0.5,0.3-1.1,0.4-1.7,0.4c-0.8,0-1.5-0.6-1.6-1.4c-0.1-0.8,0-1.5,0.3-2.3c0.9-2.7,2.6-5.1,4.8-7c1.1-0.9,2.4-1.5,3.8-1.6
	c0.2,0,0.4,0,0.6,0c1.2,0.3,2.4,0.4,3.6,0.3c0.5,0,0.8,0.1,0.5,0.8c-2.1,4.7-4.2,9.4-6.6,14c-0.9,1.9-2.2,3.5-3.8,4.7
	C72.1,72.9,70.7,73.4,69.3,73.5z M73.4,61.4c0,0.2,0,0.5,0.3,0.6c0.3,0.1,0.6,0.1,0.8-0.2c0.4-0.3,0.8-0.6,1.1-1
	c1.5-1.5,2.8-3.2,3.8-5.1c0.4-0.6,0.6-1.2,0.8-1.8c0.1-0.3,0.2-0.6-0.1-0.8c-0.2-0.2-0.6-0.2-0.8-0.1c-0.6,0.2-1.2,0.6-1.7,1.1
	c-1.7,1.7-3,3.7-3.9,5.9C73.5,60.5,73.4,60.9,73.4,61.4z"/>
<path class="st0" d="M62.5,58.7c0.5-0.6,1.1-1.3,1.6-1.9c1.1-1.4,2.5-2.6,3.9-3.7c0.6-0.5,1.3-0.8,2-0.8c0.6-0.1,1.2,0.3,1.3,0.9
	c0,0.1,0,0.2,0,0.4c-0.1,0.6-0.3,1.2-0.6,1.7c-0.9,2-1.8,3.9-2.7,5.9c-0.5,0.8-0.7,1.8-0.5,2.7c0.1,0.2-0.1,0.3-0.3,0.4
	c-0.7,0.3-1.5,0.4-2.3,0.3c-0.8-0.1-1.1-0.5-0.8-1.3c0.3-0.8,0.6-1.5,1-2.2c0.8-1.7,1.7-3.3,2.4-5.1c0.1-0.3,0.3-0.6,0.1-0.8
	s-0.6,0.1-0.8,0.3c-1.3,1.1-2.4,2.3-3.3,3.7c-1,1.4-2,2.8-3,4.3c-0.7,1.1-2,1.5-3.2,1c-0.4-0.2-0.5-0.3-0.3-0.8c1.3-2.7,2.7-5.3,4-8
	c0.5-0.7,0.6-1.6,0.4-2.4c-0.1-0.2,0-0.4,0.2-0.4c0,0,0,0,0.1,0c0.7-0.3,1.4-0.4,2.1-0.4c0.8,0.1,1.1,0.5,0.9,1.3
	c-0.2,0.8-0.6,1.6-1,2.4C63.3,57,62.9,57.8,62.5,58.7L62.5,58.7z"/>
<path class="st0" d="M57.8,42.1c1.2-1.2,2.3-2.5,3.5-3.7c0.8-0.8,1.7-1.5,2.7-2.2c0.1-0.1,0.3-0.1,0.4-0.2c0.7-0.3,1.4-0.5,2,0
	s0.4,1.3,0.1,1.9c-1,2.1-2,4.2-2.9,6.3c-0.4,0.9-1,1.8-0.6,3c0.1,0.2-0.1,0.3-0.3,0.3C62,48,61.2,48.1,60.4,48
	c-0.8-0.1-1-0.5-0.8-1.3c0.3-0.8,0.6-1.5,1-2.3c0.8-1.7,1.7-3.3,2.3-5.1c0.1-0.3,0.3-0.6,0.1-0.8s-0.6,0.1-0.8,0.2
	c-0.6,0.4-1.1,0.9-1.5,1.5c-1.7,2-3.3,4.2-4.8,6.4c-0.6,1.1-2,1.6-3.2,1.1c-0.4-0.2-0.5-0.3-0.3-0.8c1.3-2.6,2.6-5.3,4-7.9
	c0.5-0.7,0.6-1.6,0.4-2.5c-0.1-0.3,0.1-0.4,0.3-0.5c0.7-0.3,1.5-0.4,2.3-0.3c0.7,0.1,0.9,0.5,0.8,1.2c-0.3,0.9-0.6,1.7-1.1,2.5
	C58.6,40.4,58.2,41.2,57.8,42.1z"/>
<path class="st0" d="M48.3,45.1c-0.7,0.6-1.2,1.3-1.9,1.8c-0.8,0.7-1.9,1.1-3,1.2c-0.9,0.1-1.8-0.7-1.8-1.6c0-0.1,0-0.2,0-0.3
	c0-1.1,0.4-2.1,1.1-3c1.3-1.7,3.2-2.9,5.2-3.3c0.6-0.1,1.3-0.1,1.9,0.1c-1.9,0.7-3.5,2-4.5,3.8c-0.2,0.4-0.4,0.8-0.5,1.3
	c-0.1,0.7,0.3,1.1,1,0.9c0.3-0.1,0.7-0.2,0.9-0.5c2-1.9,3.4-4.2,4.3-6.8c0.4-1.2-0.2-1.8-1.5-1.7c-1.2,0.2-2.3,0.6-3.3,1.2
	c0.3-0.6,0.7-1.2,1.3-1.5c1.4-1,3.1-1.3,4.8-0.9c1.2,0.1,2,1.2,1.9,2.4c0,0.3-0.1,0.5-0.2,0.7c-0.6,1.6-1.2,3.1-2,4.6
	c-0.4,0.8-0.7,1.5-1,2.3c-0.2,0.4-0.3,0.9-0.1,1.3c0.2,0.4,0,0.5-0.3,0.7c-0.6,0.2-1.2,0.3-1.9,0.3c-0.7-0.1-1-0.5-0.9-1.2
	S48.1,45.7,48.3,45.1z"/>
<path class="st0" d="M82.8,36.7c-1.1-0.4-2.5-0.2-3.3,0.7c-2,1.8-3.4,4.2-3.8,6.8c0,0.2,0,0.3,0,0.5c0,0.7,0.1,1.5,0.8,1.8
	c0.7,0.3,1.5,0.1,2.1-0.4c1.7-1.4,2.4-3.6,2-5.8c0-0.3-0.2-0.6-0.4-0.9c-0.5-0.5-0.2-0.9,0.2-1.2c0.6-0.5,1.4-0.7,2.2-0.4
	c0.7,0.3,1.1,1.1,1,1.8c0.1,3.7-3.6,8-7.2,8.4c-1.7,0.4-3.4-0.6-3.8-2.3c-0.1-0.3-0.1-0.7-0.1-1c-0.1-4,3-8.3,6.7-9.2
	C80.4,35.3,82.2,35.5,82.8,36.7z"/>
<path class="st0" d="M32.9,53.3c-1.2-0.5-2.6-0.2-3.5,0.8c-2,1.8-3.3,4.3-3.6,7c-0.2,0.8,0.1,1.7,0.8,2.2c0.8,0.3,1.8,0.1,2.4-0.7
	c1.3-1.3,2-3.1,1.9-5c0-0.6-0.2-1.1-0.5-1.5c-0.5-0.5-0.2-0.8,0.2-1.1c0.6-0.6,1.4-0.8,2.2-0.5c0.7,0.3,1.1,1.1,1,1.9
	c0,4.1-4.1,8.5-8,8.4c-1.5,0.1-2.9-1.1-3-2.6c-0.5-3.9,2.7-9.2,6.9-10C30.8,51.8,32.1,52.2,32.9,53.3z"/>
<path class="st0" d="M92.8,53.3c-1.9-0.6-3.2,0.2-4.2,1.4c-1.6,1.7-2.6,3.9-2.9,6.2c-0.2,1.2,0.2,2,0.8,2.3c0.9,0.3,1.8,0,2.4-0.8
	c1.3-1.3,1.9-3.2,1.8-5c0-0.5-0.2-1-0.5-1.4c-0.4-0.4-0.3-0.6,0.1-0.9c0.6-0.6,1.5-0.8,2.3-0.6c0.7,0.4,1.1,1.1,1,1.9
	c0,0.8-0.2,1.6-0.5,2.4c-1.2,2.8-3,5.1-6.2,5.9c-2.7,0.6-4.6-0.9-4.4-3.6c0.2-3.3,2-6.3,4.8-8c1.2-0.8,2.6-1.1,4-0.7
	C91.9,52.4,92.4,52.8,92.8,53.3z"/>
<path class="st0" d="M76,31.2c-1,1.3-1.8,2.8-2.4,4.3c-0.3,0.5-0.1,0.7,0.4,0.7s0.9,0,1.5,0c-0.3,0.6-1,0.9-1.6,0.9
	c-0.7-0.1-1.4,0.4-1.6,1.1c-0.9,2.2-2,4.4-3,6.7c-0.4,0.8-0.9,1.7-0.4,2.7c0.1,0.2-0.1,0.3-0.2,0.3C67.9,48,67,48.1,66.2,48
	c-0.5,0-0.8-0.4-0.8-0.8c0-0.1,0-0.2,0.1-0.3c0.1-0.5,0.3-0.9,0.5-1.3c1.2-2.6,2.5-5.3,3.7-7.9c0.3-0.5,0.2-0.7-0.4-0.7
	c-0.3,0-0.6,0-0.9,0c-0.1,0-0.3,0-0.4-0.2s0.1-0.3,0.2-0.3c0.5-0.3,1-0.4,1.6-0.4c0.4,0,0.7-0.2,0.9-0.5c0.7-1.3,1.6-2.5,2.8-3.4
	C74.2,31.5,75.1,31.2,76,31.2z"/>
<path class="st0" d="M57.7,52.4c1.5,0,1.9,0.6,1.4,1.9c-1.1,2.4-2.3,4.8-3.4,7.1c-0.5,0.7-0.7,1.7-0.4,2.5c0.1,0.2,0,0.3-0.1,0.4
	c-0.8,0.4-1.7,0.5-2.5,0.3c-0.4-0.1-0.7-0.5-0.7-0.9c0-0.1,0-0.1,0.1-0.2c0.1-0.5,0.3-0.9,0.5-1.4c1-2.1,2-4.2,3-6.4
	C56,55,56.2,54,56,53.2c-0.1-0.3,0.1-0.4,0.3-0.5C56.8,52.5,57.3,52.4,57.7,52.4z"/>
<path class="st0" d="M60.2,49.8c-0.1,1.1-1.1,2-2.2,1.9c-0.1,0-0.2,0-0.2,0c-0.4-0.1-0.8-0.4-0.8-0.9c-0.1-0.7,0.2-1.4,0.8-1.7
	c0.5-0.5,1.3-0.6,1.9-0.3C60.1,49,60.3,49.4,60.2,49.8z"/>
<path class="st1" d="M37.8,58.3c0.9-1,1.8-2,2.7-3c0.7-0.7,1.4-1.4,2.2-2c0.4-0.4,0.9-0.7,1.4-1c0.7-0.4,1.5-0.7,2.2-0.1
	s0.4,1.4,0.1,2.1c-0.4,1.1-1,2.1-1.3,3.3c0.3-0.4,0.7-0.7,1-1.1c1.2-1.3,2.5-2.6,4-3.6c0.5-0.4,1.1-0.7,1.7-0.8
	c1.3-0.3,2,0.5,1.7,1.7c-0.1,0.4-0.3,0.9-0.5,1.3c-0.9,2-1.9,4-2.8,6.1c-0.4,0.7-0.6,1.5-0.3,2.3c0.1,0.3,0,0.3-0.2,0.4
	c-0.8,0.3-1.6,0.4-2.4,0.3c-0.7-0.1-1-0.5-0.8-1.2c0.3-0.8,0.6-1.6,1-2.3c0.8-1.6,1.6-3.3,2.3-4.9c0.1-0.3,0.4-0.7,0.1-0.9
	s-0.6,0.1-0.9,0.3c-0.9,0.8-1.7,1.6-2.5,2.6c-1.4,1.7-2.7,3.4-3.8,5.3C42,64,40.7,64.5,39.7,64c-0.5-0.2-0.6-0.4-0.3-0.9
	c1.3-2.4,2.4-4.9,3.5-7.4c0.1-0.3,0.5-0.7,0.1-0.9s-0.7,0.1-0.9,0.3c-1.1,1-2.1,2.1-3,3.3c-1.1,1.5-2.2,3-3.2,4.5
	c-0.6,1.1-1.9,1.6-3.1,1.1c-0.5-0.2-0.6-0.3-0.3-0.9c1.3-2.6,2.6-5.2,3.9-7.7c0.5-0.8,0.7-1.8,0.5-2.7c-0.1-0.3,0.1-0.3,0.3-0.4
	c0.6-0.3,1.2-0.4,1.9-0.4c1,0,1.3,0.6,1.1,1.5c-0.5,1.3-1.1,2.6-1.8,3.9c-0.1,0.3-0.3,0.7-0.5,1L37.8,58.3z"/>
<path class="st1" d="M11.5,45.3c3.2-1.4,6.9-0.7,9.3,1.9c2,2.1,2.7,5.1,1.8,7.9c-1.6,5.4-5.1,9-10.7,10.1c-1.5,0.3-3.1,0.2-4.7-0.2
	c-0.5-0.1-0.5-0.3-0.3-0.7c1.9-3.9,3.6-7.8,5.3-11.8c0.4-0.8,0.6-1.8,0.5-2.7c-0.1-0.3,0.1-0.5,0.3-0.6c0,0,0,0,0,0
	c0.7-0.3,1.5-0.4,2.3-0.3c0.9,0.1,1.2,0.5,1,1.4c-0.2,0.5-0.4,1-0.6,1.5c-1.7,3.8-3.3,7.5-5,11.3c-0.3,0.7-0.3,0.8,0.6,0.8
	c1.2,0,2.4-0.5,3.3-1.3c2.9-2.4,4.7-5.9,4.9-9.7c0.3-4.1-2.3-6.9-6.4-7.4L11.5,45.3z"/>
<path class="st1" d="M39.4,34.8c0.5-0.7,0.9-1.6,1-2.5c0.1-1-0.5-1.6-1.5-1.5c-1.2,0-2.3,0.7-2.8,1.8c-0.5,1.1-0.2,2.3,0.6,3.1
	c0.4,0.5,0.8,0.9,1.3,1.4c0.8,0.8,1.5,1.7,2,2.7c0.9,1.7,0.9,3.7-0.1,5.3c-2.1,3.5-6.3,5.2-10.2,4.1c-2.6-0.8-3.5-2.8-2.4-5.3
	c0.8-1.9,2.6-3.1,4.6-3.1c0.2,0,0.4,0,0.6,0c0.1,0,0.3,0.1,0.5,0.1c-1,0.8-1.9,1.8-2.4,3c-0.3,0.6-0.5,1.3-0.6,2
	c-0.1,1.3,0.9,2.4,2.2,2.4c0.2,0,0.4,0,0.6,0c2.7-0.4,4.5-2.9,4.1-5.6c-0.1-0.7-0.4-1.4-0.7-2c-0.7-1-1.5-2-2.3-2.9
	c-2.2-2.5-1.8-5.4,1.2-7.1c2.1-1.2,4.6-1.5,6.9-1c1.5,0.3,2,1.4,1.2,2.8C42.3,33.9,40.9,34.8,39.4,34.8z"/>
<path class="st1" d="M69,73c3.3-2.6,5-6.3,6.8-9.9c0.6-1.1,1.1-2.2,1.4-3.4c-0.6,0.7-1.2,1.4-1.9,2.1c-0.7,0.8-1.5,1.5-2.4,2
	c-0.5,0.3-1.1,0.4-1.7,0.4c-0.8,0-1.4-0.6-1.5-1.4c-0.1-0.8,0-1.5,0.2-2.3c0.9-2.7,2.6-5.1,4.8-7c1.1-0.9,2.4-1.5,3.8-1.6
	c0.2,0,0.4,0,0.6,0c1.2,0.3,2.4,0.4,3.6,0.3c0.5-0.1,0.8,0.1,0.5,0.8c-2.2,4.7-4.2,9.4-6.6,14c-0.9,1.9-2.2,3.5-3.8,4.7
	C71.8,72.4,70.4,72.9,69,73z M73.1,61c0,0.2,0,0.5,0.3,0.6c0.3,0.1,0.6,0,0.8-0.2c0.4-0.3,0.8-0.6,1.1-1c1.5-1.5,2.8-3.2,3.8-5.1
	c0.4-0.6,0.7-1.2,0.9-1.9c0.1-0.3,0.2-0.6-0.1-0.8c-0.2-0.2-0.6-0.2-0.8-0.1c-0.6,0.2-1.2,0.6-1.7,1.1c-1.7,1.7-3,3.7-3.9,5.9
	C73.3,60.1,73.1,60.5,73.1,61z"/>
<path class="st1" d="M62.3,58.3c0.5-0.6,1.1-1.3,1.6-1.9c1.2-1.4,2.5-2.6,3.9-3.7c0.6-0.5,1.3-0.8,2-0.8c0.6-0.1,1.2,0.3,1.3,0.9
	c0,0.1,0,0.3,0,0.4c-0.1,0.6-0.3,1.2-0.5,1.7c-0.9,2-1.8,3.9-2.8,5.9c-0.5,0.8-0.7,1.8-0.5,2.7c0.1,0.2-0.1,0.3-0.3,0.4
	c-0.7,0.3-1.5,0.4-2.3,0.3c-0.8-0.1-1.1-0.5-0.9-1.3c0.3-0.8,0.6-1.5,1-2.2c0.8-1.7,1.7-3.3,2.4-5.1c0.1-0.3,0.3-0.6,0.1-0.8
	s-0.6,0.1-0.8,0.3c-1.3,1.1-2.4,2.3-3.3,3.7c-1,1.4-2,2.8-3,4.2c-0.7,1.1-2,1.5-3.2,1c-0.4-0.2-0.5-0.3-0.3-0.8c1.3-2.7,2.7-5.3,4-8
	c0.5-0.7,0.6-1.6,0.4-2.4c-0.1-0.2,0-0.4,0.1-0.4c0,0,0.1,0,0.1,0c0.7-0.3,1.4-0.4,2.1-0.4c0.8,0.1,1.1,0.5,0.9,1.3
	c-0.2,0.8-0.6,1.6-1,2.4l-1.3,2.5L62.3,58.3z"/>
<path class="st1" d="M57.5,41.6c1.2-1.2,2.3-2.5,3.5-3.7c0.8-0.8,1.7-1.5,2.7-2.2c0.1-0.1,0.3-0.1,0.4-0.2c0.7-0.3,1.4-0.6,2,0
	s0.4,1.3,0.1,1.9c-0.9,2.1-2,4.2-2.9,6.4c-0.4,0.9-1,1.8-0.6,3c0.1,0.2-0.1,0.3-0.3,0.3c-0.7,0.3-1.5,0.4-2.3,0.3
	c-0.8-0.1-1-0.5-0.8-1.3c0.3-0.8,0.6-1.5,1-2.2c0.8-1.7,1.7-3.3,2.3-5.1c0.1-0.3,0.4-0.6,0.1-0.8s-0.6,0.1-0.8,0.2
	c-0.6,0.4-1.1,0.9-1.5,1.5c-1.7,2-3.3,4.2-4.8,6.4c-0.6,1.1-2,1.6-3.2,1.1c-0.4-0.2-0.5-0.3-0.3-0.8c1.3-2.6,2.6-5.3,4-7.9
	c0.5-0.7,0.6-1.6,0.4-2.5c-0.1-0.3,0.1-0.4,0.3-0.5c0.7-0.3,1.4-0.4,2.2-0.4c0.7,0.1,0.9,0.5,0.8,1.2c-0.3,0.9-0.6,1.7-1.1,2.5
	L57.5,41.6z"/>
<path class="st1" d="M48,44.6c-0.7,0.6-1.2,1.2-1.9,1.8c-0.8,0.7-1.9,1.1-3,1.2c-0.9,0.1-1.8-0.7-1.8-1.6c0-0.1,0-0.2,0-0.3
	c0-1.1,0.4-2.1,1.1-3c1.3-1.7,3.2-2.9,5.2-3.3c0.6-0.1,1.3-0.1,1.9,0.2c-1.9,0.6-3.6,2-4.5,3.8c-0.2,0.4-0.4,0.8-0.5,1.2
	c-0.1,0.7,0.3,1.1,1,0.9c0.3-0.1,0.7-0.3,0.9-0.5c1.9-1.9,3.4-4.2,4.2-6.7c0.4-1.2-0.2-1.8-1.5-1.7c-1.2,0.2-2.3,0.6-3.3,1.2
	c0.3-0.6,0.7-1.2,1.3-1.5c1.4-1,3.1-1.3,4.8-0.9c1.2,0.1,2,1.2,1.9,2.4c0,0.3-0.1,0.5-0.2,0.7c-0.6,1.6-1.2,3.1-2,4.6
	c-0.4,0.8-0.7,1.5-1,2.3c-0.2,0.4-0.3,0.9-0.1,1.4c0.2,0.4,0,0.5-0.3,0.7c-0.6,0.2-1.2,0.3-1.9,0.3c-0.7-0.1-1-0.4-0.9-1.2
	S47.8,45.2,48,44.6z"/>
<path class="st1" d="M82.5,36.2c-1.1-0.4-2.5-0.2-3.3,0.7c-2,1.8-3.3,4.2-3.8,6.8c0,0.2,0,0.3,0,0.5c0,0.7,0.1,1.5,0.9,1.8
	c0.7,0.3,1.5,0.1,2-0.4c1.6-1.4,2.4-3.6,2-5.8c0-0.3-0.1-0.6-0.3-0.9c-0.5-0.5-0.2-0.9,0.2-1.2c0.6-0.5,1.4-0.7,2.2-0.4
	c0.7,0.3,1.1,1.1,1,1.8c0.1,3.7-3.6,8-7.2,8.4c-1.7,0.4-3.4-0.6-3.8-2.3c-0.1-0.3-0.1-0.7-0.1-1c-0.1-4,3-8.3,6.7-9.2
	C80.1,34.8,81.9,35,82.5,36.2z"/>
<path class="st1" d="M32.6,52.8c-1.2-0.5-2.6-0.2-3.5,0.8c-2,1.8-3.3,4.2-3.6,6.9c-0.2,0.8,0.1,1.7,0.8,2.2c0.8,0.3,1.8,0.1,2.4-0.7
	c1.3-1.3,2-3.1,1.9-5c0-0.5-0.2-1-0.5-1.4c-0.5-0.5-0.2-0.8,0.1-1.1c0.6-0.6,1.4-0.8,2.2-0.5c0.7,0.3,1.1,1.1,1,1.9
	c0,4.1-4.1,8.5-8,8.4c-1.5,0-2.8-1.1-3-2.6c-0.5-3.9,2.7-9.2,6.9-10C30.5,51.3,31.8,51.8,32.6,52.8z"/>
<path class="st1" d="M92.5,52.8c-1.9-0.6-3.2,0.2-4.2,1.4c-1.6,1.7-2.6,3.9-2.9,6.2c-0.2,1.2,0.2,2,0.8,2.3c0.9,0.3,1.8,0,2.4-0.8
	c1.3-1.3,1.9-3.2,1.8-5c0-0.5-0.2-1-0.5-1.4c-0.4-0.4-0.3-0.6,0.1-0.9c0.6-0.6,1.5-0.8,2.3-0.6c0.7,0.4,1.1,1.1,1,1.9
	c0,0.8-0.2,1.6-0.5,2.4c-1.2,2.8-3,5.1-6.2,5.9c-2.7,0.6-4.6-0.9-4.4-3.6c0.2-3.3,2-6.3,4.8-8c1.2-0.8,2.6-1.1,4-0.7
	C91.6,51.9,92.2,52.3,92.5,52.8z"/>
<path class="st1" d="M75.7,30.7c-1,1.3-1.8,2.8-2.5,4.3c-0.3,0.5-0.1,0.7,0.4,0.7s0.9,0,1.5,0c-0.3,0.6-1,0.9-1.6,0.9
	c-0.7-0.1-1.3,0.4-1.5,1.1c-0.9,2.2-2,4.4-3,6.7c-0.4,0.8-0.9,1.7-0.4,2.7c0.1,0.2-0.1,0.3-0.2,0.3c-0.8,0.3-1.6,0.4-2.5,0.3
	c-0.5,0-0.8-0.4-0.8-0.8c0-0.1,0-0.2,0.1-0.3c0.1-0.5,0.3-0.9,0.5-1.3c1.2-2.6,2.5-5.3,3.7-7.9c0.2-0.5,0.2-0.7-0.4-0.7
	c-0.3,0-0.6,0-0.9,0c-0.1,0-0.3,0-0.4-0.2s0.1-0.3,0.2-0.3c0.5-0.3,1-0.4,1.6-0.4c0.4,0,0.7-0.2,0.9-0.5c0.7-1.3,1.6-2.5,2.8-3.5
	C73.8,31.1,74.7,30.8,75.7,30.7z"/>
<path class="st1" d="M57.4,51.9c1.5,0,2,0.6,1.4,1.8c-1.1,2.4-2.3,4.7-3.4,7.1c-0.5,0.7-0.7,1.7-0.4,2.6c0.1,0.2,0,0.3-0.1,0.3
	c-0.8,0.4-1.7,0.5-2.5,0.3c-0.4,0-0.8-0.4-0.7-0.9c0-0.1,0-0.2,0.1-0.3c0.1-0.5,0.3-0.9,0.5-1.4c1-2.1,2-4.3,3.1-6.4
	c0.5-0.8,0.6-1.7,0.4-2.6c-0.1-0.3,0.1-0.4,0.3-0.5C56.5,52.1,57,52,57.4,51.9z"/>
<path class="st1" d="M59.9,49.3c-0.1,1.1-1.1,2-2.2,1.9c-0.1,0-0.2,0-0.2,0c-0.4-0.1-0.8-0.4-0.8-0.9c-0.1-0.7,0.2-1.4,0.8-1.7
	c0.5-0.5,1.3-0.6,1.9-0.3C59.7,48.6,60,48.9,59.9,49.3z"/>
<path class="st2" d="M17,34.6c-0.4-1.5-1.3-1.9-2.5-1.1c-1.8,1.4-2.7,3.6-2.4,5.9c0,0.7,0.6,1.1,1.3,1.1c0.2,0,0.5-0.1,0.6-0.3
	c1-0.6,1.7-1.5,2.1-2.5c0.3,0.2,0.1,0.4,0,0.6c-0.5,1.8-2.1,3-4,3.1c-0.9,0-1.6-0.6-1.7-1.5c-0.3-2.2,1.5-6.6,4.7-7.3
	c0.6-0.1,1.2-0.2,1.8-0.1c0.9,0.1,1.1,0.4,0.7,1.3C17.5,34.1,17.3,34.4,17,34.6z"/>
<path class="st2" d="M18.5,36.5c0.7-0.9,1.9-1.2,2.9-0.6c0.3,0.2,0.5,0.7,0.3,1.1c-0.3,0.8-0.6,1.6-1,2.4c-0.2,0.4-0.4,0.9-0.5,1.3
	c0,0.2,0.1,0.4-0.2,0.5s-0.6,0.2-0.9,0c-0.2-0.1-0.2-0.3-0.1-0.5l0.3-0.8c-0.5,0.4-0.9,0.8-1.5,1.1c-0.4,0.3-1,0.3-1.4,0
	c-0.4-0.4-0.3-0.9-0.1-1.3c0.6-1.3,1.9-2.2,3.3-2.2c-0.7,0.4-1.3,0.9-1.7,1.6c-0.2,0.4-0.6,0.8-0.2,1.1s0.8-0.1,1.1-0.4
	c0.7-0.7,1.2-1.6,1.6-2.5c0.3-0.9,0-1.3-1-1.1C19.1,36.3,18.8,36.4,18.5,36.5z"/>
<path class="st2" d="M22.7,36c1.2,0,1.4-1,1.8-1.7c0.5-1,1.4-1.7,2.5-2c0.2-0.1,0.4-0.1,0.7,0c0.2,0.1,0.5,0,0.4,0.4s-0.3,0-0.5,0
	c-0.4-0.1-0.9,0-1.1,0.4c-0.6,0.7-1,1.5-1.3,2.3c-0.2,0.6,0.5,0.2,0.6,0.5c0,0,0,0.1,0,0.1c-0.9,0-1.2,0.7-1.5,1.4
	c-0.4,1-0.9,2-1.4,3.1c-0.3,0.8-0.9,1.5-1.5,2.1c-0.4,0.3-0.9,0.5-1.3,0.4c1.5-1.8,2.2-4,3.2-6C23.5,36.3,23.5,36.1,22.7,36z"/>
<path class="st2" d="M28.4,39.7C28,40.7,27,41.3,26,41.2c-0.7,0-1.3-0.6-1.3-1.3c0,0,0-0.1,0-0.1c0.2-2,1.6-3.7,3.6-4.3
	c0.2,0,0.5,0,0.7,0c0.5,0,0.9,0.4,0.9,0.9c0,0.2,0,0.4-0.2,0.5c-0.5,1-1.5,1.6-2.6,1.6c0.7-0.4,1.2-1,1.6-1.7
	c0.1-0.3,0.4-0.6,0.1-0.9s-0.6,0-0.8,0.2c-1,0.9-1.7,2.1-2,3.4c-0.1,0.3,0,0.7,0.3,0.9c0.3,0.2,0.6,0.2,0.9,0
	C27.6,40.2,28,40,28.4,39.7z"/>
<linearGradient id="SVGID_1_" gradientUnits="userSpaceOnUse" x1="42.5317" y1="37.97" x2="42.5317" y2="50.3" gradientTransform="matrix(1 0 0 -1 0 102)">
	<stop  offset="0" style="stop-color:#9D0917"/>
	<stop  offset="1" style="stop-color:#D7182A"/>
</linearGradient>
<path class="st3" d="M37.5,58.2c0.9-1,1.8-2,2.8-3c0.7-0.7,1.4-1.4,2.2-2c0.4-0.4,0.9-0.7,1.4-1c0.7-0.4,1.5-0.7,2.2-0.1
	s0.3,1.4,0.1,2.1c-0.4,1.1-1,2.1-1.3,3.2c0.3-0.4,0.7-0.7,1-1.1c1.2-1.3,2.5-2.6,4-3.6c0.5-0.4,1.1-0.7,1.7-0.8
	c1.3-0.3,2,0.5,1.7,1.7c-0.2,0.5-0.3,0.9-0.5,1.4c-0.9,2-1.9,4-2.8,6.1c-0.4,0.7-0.6,1.5-0.3,2.3c0.1,0.3,0,0.3-0.2,0.4
	c-0.8,0.3-1.6,0.4-2.4,0.3c-0.7-0.1-1-0.5-0.8-1.2c0.3-0.8,0.6-1.6,1-2.3c0.8-1.6,1.6-3.3,2.3-4.9c0.1-0.3,0.4-0.7,0.1-0.9
	s-0.6,0.1-0.9,0.3c-0.9,0.7-1.8,1.6-2.5,2.5c-1.4,1.7-2.7,3.4-3.8,5.3c-0.5,1.1-1.8,1.5-2.9,1c-0.5-0.2-0.6-0.4-0.3-0.9
	c1.3-2.4,2.4-4.9,3.5-7.4c0.1-0.3,0.5-0.7,0.1-0.9s-0.7,0.1-0.9,0.3c-1.1,1-2.1,2.1-3,3.3c-1.1,1.5-2.2,3-3.2,4.5
	c-0.6,1.1-1.9,1.6-3.1,1.1c-0.5-0.2-0.6-0.3-0.3-0.9c1.3-2.6,2.6-5.2,3.9-7.7c0.5-0.8,0.7-1.8,0.5-2.7c-0.1-0.3,0.1-0.3,0.3-0.4
	c0.6-0.3,1.2-0.4,1.9-0.4c1,0,1.3,0.6,1.1,1.5c-0.5,1.3-1.1,2.6-1.8,3.9c-0.1,0.3-0.3,0.7-0.5,1L37.5,58.2z"/>
<linearGradient id="SVGID_2_" gradientUnits="userSpaceOnUse" x1="14.6006" y1="36.9106" x2="14.6006" y2="57.5905" gradientTransform="matrix(1 0 0 -1 0 102)">
	<stop  offset="0" style="stop-color:#9D0917"/>
	<stop  offset="1" style="stop-color:#D7182A"/>
</linearGradient>
<path class="st4" d="M11.2,45.1c3.2-1.4,6.9-0.7,9.3,1.9c2,2.1,2.7,5.1,1.8,7.8c-1.6,5.4-5.1,9-10.7,10.1c-1.5,0.3-3.1,0.2-4.7-0.2
	c-0.5-0.1-0.5-0.3-0.3-0.7c1.9-3.9,3.6-7.8,5.3-11.8c0.4-0.8,0.6-1.8,0.5-2.7c-0.1-0.3,0.1-0.5,0.3-0.6c0,0,0,0,0,0
	c0.7-0.3,1.5-0.4,2.3-0.3c0.9,0.1,1.2,0.5,1,1.4c-0.2,0.5-0.3,1-0.6,1.5c-1.7,3.8-3.3,7.5-5,11.3c-0.3,0.7-0.3,0.8,0.6,0.8
	c1.2,0,2.4-0.5,3.3-1.3c2.9-2.4,4.7-5.9,4.9-9.7c0.3-4.1-2.3-6.8-6.4-7.4L11.2,45.1z"/>
<linearGradient id="SVGID_3_" gradientUnits="userSpaceOnUse" x1="34.8521" y1="52.6" x2="34.8521" y2="72.49" gradientTransform="matrix(1 0 0 -1 0 102)">
	<stop  offset="0" style="stop-color:#9D0917"/>
	<stop  offset="1" style="stop-color:#D7182A"/>
</linearGradient>
<path class="st5" d="M39.1,34.7c0.5-0.7,0.9-1.6,1-2.5c0.1-1.1-0.5-1.6-1.5-1.5c-1.2,0-2.3,0.7-2.8,1.8c-0.5,1.1-0.2,2.3,0.6,3.1
	c0.4,0.5,0.8,0.9,1.3,1.4c0.8,0.8,1.5,1.7,2,2.7c0.9,1.7,0.9,3.7-0.1,5.3c-2.1,3.5-6.3,5.2-10.3,4c-2.6-0.8-3.5-2.8-2.4-5.3
	c0.8-1.9,2.6-3.1,4.6-3.1c0.2,0,0.4,0,0.6,0c0.1,0,0.3,0.1,0.5,0.1c-1,0.8-1.9,1.8-2.4,3c-0.3,0.6-0.5,1.2-0.5,1.9
	c-0.1,1.3,0.9,2.4,2.2,2.4c0.2,0,0.4,0,0.6,0c2.7-0.4,4.5-2.9,4.1-5.6c-0.1-0.7-0.4-1.4-0.7-2c-0.7-1-1.5-2-2.3-2.9
	c-2.2-2.5-1.8-5.4,1.2-7.1c2.1-1.2,4.6-1.5,6.9-1c0.9,0.1,1.6,0.9,1.6,1.8c0,0.4-0.2,0.7-0.4,1C42.1,33.7,40.7,34.6,39.1,34.7z"/>
<linearGradient id="SVGID_4_" gradientUnits="userSpaceOnUse" x1="75.9336" y1="29.11" x2="75.9336" y2="50.2963" gradientTransform="matrix(1 0 0 -1 0 102)">
	<stop  offset="0" style="stop-color:#9D0917"/>
	<stop  offset="1" style="stop-color:#D7182A"/>
</linearGradient>
<path class="st6" d="M68.7,72.9c3.3-2.6,5-6.3,6.9-9.9c0.6-1.1,1.1-2.2,1.4-3.4c-0.6,0.7-1.2,1.4-1.9,2.1c-0.7,0.8-1.5,1.4-2.4,1.9
	C72.2,63.9,71.6,64,71,64c-0.8,0-1.4-0.6-1.5-1.4c-0.1-0.8,0-1.6,0.3-2.3c0.9-2.7,2.6-5.1,4.8-7c1.1-0.9,2.4-1.5,3.8-1.6
	c0.2,0,0.4,0,0.6,0c1.2,0.3,2.4,0.4,3.6,0.3c0.5-0.1,0.8,0.1,0.5,0.8c-2.2,4.7-4.2,9.4-6.6,14c-0.9,1.9-2.2,3.5-3.8,4.7
	C71.5,72.3,70.1,72.8,68.7,72.9z M72.8,60.8c0,0.2,0,0.5,0.3,0.6c0.3,0.1,0.6,0,0.8-0.2c0.4-0.3,0.8-0.6,1.1-1
	c1.5-1.5,2.8-3.2,3.8-5.1c0.4-0.6,0.6-1.2,0.8-1.8c0.1-0.3,0.2-0.6-0.1-0.8c-0.2-0.2-0.6-0.2-0.8-0.1c-0.6,0.2-1.2,0.6-1.7,1.1
	c-1.7,1.7-3.1,3.7-3.9,5.9C72.9,59.9,72.8,60.3,72.8,60.8z"/>
<linearGradient id="SVGID_5_" gradientUnits="userSpaceOnUse" x1="63.5529" y1="37.97" x2="63.5529" y2="50.26" gradientTransform="matrix(1 0 0 -1 0 102)">
	<stop  offset="0" style="stop-color:#9D0917"/>
	<stop  offset="1" style="stop-color:#D7182A"/>
</linearGradient>
<path class="st7" d="M62,58.1c0.5-0.6,1.1-1.3,1.6-1.9c1.2-1.4,2.5-2.6,3.9-3.7c0.6-0.5,1.3-0.8,2-0.8c0.6-0.1,1.2,0.3,1.2,0.9
	c0,0.1,0,0.2,0,0.3c-0.1,0.6-0.2,1.2-0.5,1.7c-0.9,2-1.8,3.9-2.8,5.9c-0.6,0.8-0.7,1.8-0.5,2.7c0.1,0.2-0.1,0.3-0.3,0.4
	c-0.7,0.3-1.5,0.4-2.3,0.3c-0.8-0.1-1.1-0.5-0.9-1.3c0.2-0.8,0.6-1.5,0.9-2.2c0.8-1.7,1.7-3.3,2.4-5.1c0.1-0.3,0.3-0.6,0.1-0.8
	s-0.6,0.1-0.8,0.3c-1.3,1.1-2.4,2.3-3.3,3.7c-1,1.4-2,2.8-3,4.2c-0.7,1.1-2,1.5-3.2,1c-0.4-0.2-0.5-0.3-0.3-0.8c1.3-2.7,2.7-5.3,4-8
	c0.5-0.7,0.6-1.6,0.4-2.4c-0.1-0.2,0-0.4,0.1-0.4c0,0,0.1,0,0.1,0c0.7-0.3,1.4-0.4,2.1-0.4c0.8,0.1,1.1,0.5,0.9,1.3
	c-0.2,0.8-0.6,1.7-1,2.4c-0.4,0.9-0.8,1.7-1.3,2.6L62,58.1z"/>
<linearGradient id="SVGID_6_" gradientUnits="userSpaceOnUse" x1="58.9327" y1="54.57" x2="58.9327" y2="66.89" gradientTransform="matrix(1 0 0 -1 0 102)">
	<stop  offset="0" style="stop-color:#9D0917"/>
	<stop  offset="1" style="stop-color:#D7182A"/>
</linearGradient>
<path class="st8" d="M57.2,41.5c1.2-1.2,2.3-2.5,3.5-3.7c0.8-0.8,1.7-1.5,2.7-2.2l0.4-0.2c0.7-0.3,1.4-0.6,2,0s0.4,1.3,0.1,1.9
	c-1,2.1-2,4.2-2.9,6.4c-0.4,0.9-1,1.8-0.6,3c0.1,0.2-0.1,0.3-0.3,0.3c-0.7,0.3-1.5,0.4-2.3,0.3c-0.8-0.1-1-0.5-0.8-1.3
	c0.2-0.8,0.6-1.5,1-2.2c0.8-1.7,1.7-3.3,2.3-5.1c0.1-0.3,0.4-0.6,0.1-0.8s-0.6,0.1-0.8,0.2c-0.6,0.4-1.1,0.9-1.5,1.5
	c-1.7,2-3.3,4.2-4.8,6.4c-0.6,1.1-2,1.6-3.2,1.1c-0.4-0.2-0.5-0.3-0.3-0.8c1.3-2.6,2.6-5.3,4-7.9c0.5-0.7,0.7-1.7,0.4-2.5
	c-0.1-0.3,0.1-0.4,0.3-0.5c0.7-0.3,1.5-0.4,2.3-0.3c0.7,0.1,0.9,0.5,0.8,1.2c-0.3,0.9-0.6,1.7-1.1,2.5L57.2,41.5z"/>
<linearGradient id="SVGID_7_" gradientUnits="userSpaceOnUse" x1="47.2391" y1="54.58" x2="47.2391" y2="67.0799" gradientTransform="matrix(1 0 0 -1 0 102)">
	<stop  offset="0" style="stop-color:#9D0917"/>
	<stop  offset="1" style="stop-color:#D7182A"/>
</linearGradient>
<path class="st9" d="M47.7,44.5c-0.7,0.6-1.2,1.2-1.9,1.8c-0.8,0.7-1.9,1.1-3,1.2c-1,0-1.8-0.7-1.8-1.7c0-0.1,0-0.2,0-0.2
	c0-1.1,0.4-2.1,1.1-3c1.3-1.7,3.2-2.9,5.2-3.3c0.6-0.1,1.3-0.1,1.9,0.2c-1.9,0.7-3.5,2-4.5,3.8c-0.2,0.4-0.4,0.8-0.5,1.2
	c-0.1,0.7,0.3,1.1,1,0.9c0.3-0.1,0.7-0.3,0.9-0.5c1.9-1.9,3.4-4.2,4.2-6.7c0.3-1.2-0.2-1.8-1.5-1.7c-1.2,0.2-2.3,0.6-3.3,1.2
	c0.2-0.6,0.7-1.2,1.2-1.6c1.4-1,3.1-1.3,4.8-0.9c1.2,0.1,2,1.2,1.9,2.4c0,0.3-0.1,0.5-0.2,0.7c-0.6,1.6-1.2,3.1-2,4.6
	c-0.4,0.8-0.7,1.5-1,2.3C50,45.5,50,46,50.1,46.4c0.2,0.4,0,0.5-0.3,0.7c-0.6,0.2-1.3,0.3-1.9,0.3c-0.7-0.1-1-0.4-0.9-1.2
	S47.5,45.1,47.7,44.5z"/>
<linearGradient id="SVGID_8_" gradientUnits="userSpaceOnUse" x1="77.4984" y1="54.44" x2="77.4984" y2="67.14" gradientTransform="matrix(1 0 0 -1 0 102)">
	<stop  offset="0" style="stop-color:#9D0917"/>
	<stop  offset="1" style="stop-color:#D7182A"/>
</linearGradient>
<path class="st10" d="M82.2,36.1c-1.1-0.4-2.5-0.2-3.3,0.7c-2,1.8-3.3,4.2-3.8,6.8c0,0.2,0,0.3,0,0.5c0,0.7,0.1,1.5,0.9,1.8
	c0.7,0.3,1.5,0.1,2-0.4c1.6-1.4,2.4-3.6,2-5.8c0-0.3-0.2-0.6-0.4-0.9c-0.6-0.5-0.2-0.9,0.2-1.2c0.6-0.5,1.4-0.7,2.2-0.4
	c0.7,0.3,1.1,1.1,1,1.8c0.1,3.7-3.6,8-7.2,8.4c-1.7,0.4-3.4-0.7-3.7-2.4C72,44.8,72,44.5,72,44.2c-0.1-4,3-8.3,6.7-9.2
	C79.8,34.7,81.6,34.9,82.2,36.1z"/>
<linearGradient id="SVGID_9_" gradientUnits="userSpaceOnUse" x1="27.5719" y1="37.8676" x2="27.5719" y2="50.5476" gradientTransform="matrix(1 0 0 -1 0 102)">
	<stop  offset="0" style="stop-color:#9D0917"/>
	<stop  offset="1" style="stop-color:#D7182A"/>
</linearGradient>
<path class="st11" d="M32.3,52.7c-1.2-0.5-2.6-0.2-3.5,0.8c-2,1.8-3.3,4.2-3.6,6.9c-0.2,0.8,0.1,1.7,0.8,2.2
	c0.8,0.3,1.8,0.1,2.4-0.6c1.3-1.3,2-3.1,1.9-5c0-0.5-0.2-1-0.5-1.5c-0.5-0.5-0.2-0.8,0.1-1.1c0.6-0.6,1.5-0.8,2.2-0.5
	c0.7,0.3,1.1,1.1,1,1.8c0,4.1-4.1,8.5-8,8.4c-1.5,0-2.8-1.1-3-2.6c-0.5-3.9,2.7-9.2,6.9-10C30.2,51.2,31.5,51.7,32.3,52.7z"/>
<linearGradient id="SVGID_10_" gradientUnits="userSpaceOnUse" x1="87.3632" y1="37.84" x2="87.3632" y2="50.56" gradientTransform="matrix(1 0 0 -1 0 102)">
	<stop  offset="0" style="stop-color:#9D0917"/>
	<stop  offset="1" style="stop-color:#D7182A"/>
</linearGradient>
<path class="st12" d="M92.2,52.7C90.3,52,89,52.9,88,54.1c-1.6,1.7-2.6,3.8-3,6.2c-0.2,1.2,0.2,2,0.8,2.3c0.9,0.3,1.8,0,2.4-0.8
	c1.3-1.3,1.9-3.2,1.8-5c0-0.5-0.2-1-0.5-1.4c-0.4-0.4-0.3-0.6,0.1-0.9c0.6-0.6,1.5-0.8,2.3-0.6c0.7,0.4,1.1,1.1,1,1.9
	c0,0.8-0.2,1.6-0.5,2.4c-1.2,2.8-3,5.1-6.2,5.9c-2.7,0.6-4.6-0.9-4.4-3.6c0.2-3.3,2-6.3,4.8-8c1.2-0.8,2.6-1.1,4-0.7
	C91.3,51.8,91.8,52.1,92.2,52.7z"/>
<linearGradient id="SVGID_11_" gradientUnits="userSpaceOnUse" x1="70.0715" y1="54.5528" x2="70.0715" y2="71.43" gradientTransform="matrix(1 0 0 -1 0 102)">
	<stop  offset="0" style="stop-color:#9D0917"/>
	<stop  offset="1" style="stop-color:#D7182A"/>
</linearGradient>
<path class="st13" d="M75.4,30.6c-1,1.3-1.8,2.7-2.4,4.3c-0.3,0.5-0.1,0.7,0.4,0.7s0.9,0,1.5,0c-0.3,0.6-1,0.9-1.6,0.9
	c-0.7-0.1-1.3,0.4-1.5,1.1c-1,2.2-2,4.4-3,6.7c-0.4,0.8-0.9,1.7-0.4,2.7c0.1,0.2-0.1,0.3-0.2,0.3c-0.8,0.3-1.6,0.4-2.5,0.3
	c-0.5,0-0.8-0.4-0.8-0.8c0-0.1,0-0.2,0.1-0.3c0.1-0.4,0.3-0.9,0.5-1.3c1.2-2.6,2.4-5.3,3.7-7.9c0.2-0.5,0.2-0.7-0.4-0.7
	c-0.3,0-0.6,0-0.9,0c-0.1,0-0.3,0-0.4-0.2s0.1-0.3,0.2-0.3c0.5-0.3,1-0.4,1.6-0.4c0.4,0,0.7-0.2,0.9-0.5c0.7-1.3,1.6-2.5,2.8-3.5
	C73.6,31,74.4,30.6,75.4,30.6z"/>
<linearGradient id="SVGID_12_" gradientUnits="userSpaceOnUse" x1="55.0274" y1="37.937" x2="55.0274" y2="50.23" gradientTransform="matrix(1 0 0 -1 0 102)">
	<stop  offset="0" style="stop-color:#9D0917"/>
	<stop  offset="1" style="stop-color:#D7182A"/>
</linearGradient>
<path class="st14" d="M57.1,51.8c1.5,0,2,0.6,1.4,1.9c-1.1,2.4-2.3,4.7-3.4,7.1c-0.5,0.7-0.7,1.7-0.4,2.5c0.1,0.2,0,0.3-0.1,0.3
	C53.8,64,52.9,64.2,52,64c-0.4-0.1-0.8-0.5-0.7-0.9c0-0.1,0-0.1,0-0.2c0.1-0.5,0.3-0.9,0.5-1.4c1-2.1,2.1-4.3,3.1-6.4
	c0.5-0.8,0.6-1.7,0.5-2.6c-0.1-0.3,0.1-0.4,0.3-0.5C56.2,51.9,56.7,51.8,57.1,51.8z"/>
<linearGradient id="SVGID_13_" gradientUnits="userSpaceOnUse" x1="58.16" y1="50.9" x2="58.16" y2="53.98" gradientTransform="matrix(1 0 0 -1 0 102)">
	<stop  offset="0" style="stop-color:#9D0917"/>
	<stop  offset="1" style="stop-color:#D7182A"/>
</linearGradient>
<path class="st15" d="M59.8,49.2c-0.1,1.1-1,1.9-2.1,1.8c-0.1,0-0.2,0-0.3,0c-0.4-0.1-0.8-0.4-0.8-0.9c-0.1-0.7,0.2-1.4,0.8-1.7
	c0.5-0.5,1.3-0.6,1.9-0.3C59.6,48.4,59.8,48.8,59.8,49.2z"/>
<path class="st2" d="M31,34.1c-0.8,0.1-1.5,0.3-2.3,0.7c0.3-0.6,0.9-1.1,1.6-1.3C30.7,33.4,30.9,33.7,31,34.1z"/>
</svg>
